<?xml version="1.0" encoding="UTF-8"?>
<svg version="1.1" xmlns="http://www.w3.org/2000/svg" width="225" height="225">
<path d="M0 0 C74.25 0 148.5 0 225 0 C225 74.25 225 148.5 225 225 C150.75 225 76.5 225 0 225 C0 150.75 0 76.5 0 0 Z " fill="#FDFDFD" transform="translate(0,0)"/>
<path d="M0 0 C36.3 0 72.6 0 110 0 C110 74.25 110 148.5 110 225 C73.7 225 37.4 225 0 225 C0 224.67 0 224.34 0 224 C0.53439697 223.85014648 1.06879395 223.70029297 1.61938477 223.54589844 C7.98376169 221.61217311 13.29017867 218.7217481 18.9375 215.25 C20.88325004 214.07669009 22.82990334 212.90487712 24.77734375 211.734375 C26.29884033 210.81688477 26.29884033 210.81688477 27.85107422 209.88085938 C33.19616668 206.68822545 38.59971277 203.59802574 44 200.5 C54.96696406 194.1899278 65.90336709 187.8321178 76.76074219 181.33496094 C78.71134473 180.17208537 80.67024558 179.0253028 82.6328125 177.8828125 C89.10792271 173.99774637 93.53176339 170.40470982 96 163 C96.09832477 161.59676857 96.14339885 160.18942397 96.15390015 158.78279114 C96.16250061 157.92357056 96.17110107 157.06434998 96.17996216 156.17909241 C96.18422211 155.23932053 96.18848206 154.29954865 96.19287109 153.33129883 C96.20104858 152.33909332 96.20922607 151.34688782 96.21765137 150.32461548 C96.2424977 147.03542687 96.25902041 143.74628143 96.2734375 140.45703125 C96.28142302 138.77160501 96.28142302 138.77160501 96.28956985 137.05212975 C96.3162994 131.10368914 96.3356741 125.1552695 96.35009766 119.20678711 C96.3667359 113.06768164 96.41150801 106.92911398 96.4624691 100.79021168 C96.49615359 96.06578466 96.50767651 91.34148505 96.51332474 86.61694908 C96.52003486 84.35436587 96.53525058 82.09179097 96.55921555 79.82932472 C96.59089153 76.65766439 96.59089956 73.48745131 96.58349609 70.31567383 C96.59990143 69.3860231 96.61630676 68.45637238 96.63320923 67.49855042 C96.57243438 61.11807443 95.04470022 56.96212992 91 52 C87.73989913 48.96088997 84.17339963 46.82243842 80.30078125 44.63671875 C79.18751465 44.00499756 78.07424805 43.37327637 76.92724609 42.72241211 C76.33901062 42.39127411 75.75077515 42.06013611 75.14471436 41.71896362 C72.63313685 40.30504564 70.12707484 38.8814735 67.62054443 37.45863342 C66.32383464 36.72272457 65.02683499 35.98732624 63.72955322 35.25242615 C57.42563035 31.6804175 51.14841436 28.0627916 44.875 24.4375 C43.82642822 23.83365479 42.77785645 23.22980957 41.69750977 22.60766602 C36.6592746 19.70426972 31.62958168 16.78788744 26.62149048 13.83283997 C24.24085794 12.42930527 21.85624208 11.03261988 19.47125244 9.63650513 C17.79312964 8.65034541 16.12084244 7.65427655 14.44873047 6.65795898 C13.42924316 6.06184814 12.40975586 5.4657373 11.359375 4.8515625 C10.46702148 4.32385254 9.57466797 3.79614258 8.65527344 3.25244141 C5.75333826 1.8836544 3.17298698 1.38310708 0 1 C0 0.67 0 0.34 0 0 Z " fill="#FDFDFD" transform="translate(115,0)"/>
<path d="M0 0 C35.97 0 71.94 0 109 0 C107.68 0.66 106.36 1.32 105 2 C103.24890086 2.9836464 101.50480342 3.97980204 99.765625 4.984375 C98.72905762 5.58258057 97.69249023 6.18078613 96.62451172 6.79711914 C94.95412842 7.76379517 94.95412842 7.76379517 93.25 8.75 C92.07961135 9.42638812 90.90920086 10.10273846 89.73876953 10.77905273 C80.13781453 16.32982764 70.55462322 21.91094348 60.98046875 27.5078125 C56.84166552 29.92695769 52.69789727 32.33732149 48.55078125 34.7421875 C46.95290771 35.67019165 46.95290771 35.67019165 45.32275391 36.61694336 C43.30913433 37.78619746 41.29456545 38.95381913 39.27880859 40.11938477 C36.50888038 41.72957773 33.75095701 43.35761577 31 45 C30.0095166 45.59055176 29.0190332 46.18110352 27.99853516 46.78955078 C27.02577637 47.38622559 26.05301758 47.98290039 25.05078125 48.59765625 C24.17719971 49.13011963 23.30361816 49.66258301 22.40356445 50.21118164 C18.1540937 53.37378928 15.54711695 56.95689172 14 62 C13.70012365 65.26776608 13.70625277 68.52417566 13.70947266 71.80395508 C13.70275543 72.78669907 13.69603821 73.76944305 13.68911743 74.78196716 C13.67013386 78.02787343 13.66621295 81.27357294 13.6640625 84.51953125 C13.65763454 86.78008611 13.65090618 89.04064013 13.64389038 91.30119324 C13.6319165 96.03976367 13.62820965 100.7782612 13.62939453 105.5168457 C13.62959766 111.5796119 13.60230221 117.64190901 13.56785011 123.70456409 C13.54557805 128.3741011 13.5415571 133.0435253 13.54261398 137.71310997 C13.54025824 139.94775699 13.53143627 142.18240713 13.51594925 144.41700172 C13.49628491 147.54761926 13.50212975 150.67722643 13.51416016 153.80786133 C13.50292114 154.72501923 13.49168213 155.64217712 13.48010254 156.58712769 C13.55141913 163.91531431 15.34035489 169.28253651 20.515625 174.5703125 C25.27719174 178.14000142 30.57942859 180.95316822 35.75 183.875 C37.50006899 184.87405513 39.25013295 185.87311921 40.99987793 186.8727417 C42.80816424 187.90488121 44.61784619 188.93453968 46.42773438 189.96386719 C51.96656568 193.11697674 57.48169844 196.31115231 63 199.5 C65.14062208 200.73307799 67.2812471 201.96615087 69.421875 203.19921875 C73.4172157 205.50334305 77.40612258 207.81790314 81.38757324 210.14590454 C83.76700439 211.53659909 86.14878796 212.92323638 88.53076172 214.30957031 C90.20640899 215.28707088 91.8786444 216.27041274 93.55078125 217.25390625 C94.57042969 217.846875 95.59007813 218.43984375 96.640625 219.05078125 C97.53297852 219.57325439 98.42533203 220.09572754 99.34472656 220.6340332 C102.16570155 222.08524275 104.97037047 223.07273798 108 224 C108 224.33 108 224.66 108 225 C72.36 225 36.72 225 0 225 C0 150.75 0 76.5 0 0 Z " fill="#FDFDFD" transform="translate(0,0)"/>
<path d="M0 0 C1.47472778 0.87132568 1.47472778 0.87132568 2.97924805 1.76025391 C5.04605508 2.9830014 7.10746391 4.21491611 9.16357422 5.45556641 C13.12092401 7.83648735 17.11325297 10.1543345 21.10791016 12.47192383 C24.08527198 14.2007225 27.05673964 15.93930674 30.02734375 17.6796875 C37.77806852 22.21324734 45.56119282 26.6904809 53.34692383 31.16357422 C56.31839086 32.87345618 59.28507415 34.59130541 62.25 36.3125 C63.19198242 36.85438965 64.13396484 37.3962793 65.10449219 37.95458984 C65.99040039 38.47230957 66.87630859 38.9900293 67.7890625 39.5234375 C68.56717285 39.97509277 69.3452832 40.42674805 70.14697266 40.89208984 C74.73997651 43.99426031 78.04389362 48.25731423 80.25 53.3125 C80.50726891 55.39093399 80.50726891 55.39093399 80.51742554 57.64996338 C80.53022049 58.94085625 80.53022049 58.94085625 80.54327393 60.25782776 C80.54191437 61.66209267 80.54191437 61.66209267 80.54052734 63.09472656 C80.54724457 64.08707809 80.55396179 65.07942963 80.56088257 66.10185242 C80.5798948 69.38566077 80.58378868 72.66926501 80.5859375 75.953125 C80.59236414 78.23752934 80.5990924 80.52193285 80.60610962 82.80633545 C80.61809114 87.59796048 80.62178963 92.38951338 80.62060547 97.18115234 C80.62040245 103.31232652 80.64768318 109.44303628 80.68214989 115.57410049 C80.70442271 120.29425162 80.70844285 125.01429115 80.70738602 129.73448944 C80.70974221 131.99425606 80.71856674 134.25402574 80.73405075 136.51374054 C80.75371386 139.68038609 80.74787038 142.84603262 80.73583984 146.01269531 C80.74707886 146.94077499 80.75831787 147.86885468 80.76989746 148.82505798 C80.70398708 155.67518842 79.09510159 160.91838951 74.65332031 166.21728516 C70.0369824 169.90777972 65.17656238 172.846558 60 175.6875 C58.1290034 176.73482952 56.25927461 177.78442619 54.390625 178.8359375 C53.39869141 179.3937793 52.40675781 179.95162109 51.38476562 180.52636719 C45.79454693 183.71157279 40.27588662 187.01742233 34.75 190.3125 C24.81122267 196.23063241 14.81728292 202.03874489 4.75390625 207.7421875 C1.97160984 209.32124997 -0.79301531 210.9225156 -3.53515625 212.5703125 C-4.59605469 213.20710937 -5.65695313 213.84390625 -6.75 214.5 C-7.61625 215.02980469 -8.4825 215.55960938 -9.375 216.10546875 C-14.44606447 218.68270382 -20.46092106 219.34715016 -25.9230957 217.62890625 C-32.58085269 214.99287473 -38.61706416 211.67965862 -44.75 208 C-46.87718999 206.74148718 -49.00480903 205.48369933 -51.1328125 204.2265625 C-52.22368164 203.57977539 -53.31455078 202.93298828 -54.43847656 202.26660156 C-59.8110817 199.09627337 -65.2185805 195.98717942 -70.625 192.875 C-71.69016846 192.25834473 -72.75533691 191.64168945 -73.8527832 191.00634766 C-78.92266802 188.07393511 -84.00136447 185.16163343 -89.12084961 182.31678772 C-90.91095196 181.32075121 -92.69740653 180.31846236 -94.48291016 179.31420898 C-96.71906309 178.05896073 -98.96187227 176.815467 -101.21240234 175.58618164 C-109.07230867 171.15042376 -115.95169649 166.24472311 -118.75 157.3125 C-119.05258486 154.04506481 -119.04374712 150.78820989 -119.04052734 147.50854492 C-119.04724457 146.52580093 -119.05396179 145.54305695 -119.06088257 144.53053284 C-119.07986614 141.28462657 -119.08378705 138.03892706 -119.0859375 134.79296875 C-119.09236546 132.53241389 -119.09909382 130.27185987 -119.10610962 128.01130676 C-119.1180835 123.27273633 -119.12179035 118.5342388 -119.12060547 113.7956543 C-119.12040234 107.7328881 -119.14769779 101.67059099 -119.18214989 95.60793591 C-119.20442195 90.9383989 -119.2084429 86.2689747 -119.20738602 81.59939003 C-119.20974176 79.36474301 -119.21856373 77.13009287 -119.23405075 74.89549828 C-119.25371509 71.76488074 -119.24787025 68.63527357 -119.23583984 65.50463867 C-119.24707886 64.58748077 -119.25831787 63.67032288 -119.26989746 62.72537231 C-119.20519564 56.07689126 -117.80344416 50.68201482 -113.25391197 45.66154766 C-108.4910773 41.12402437 -102.51001891 38.1070119 -96.80096436 34.93771362 C-93.66789348 33.19767909 -90.54976067 31.43116921 -87.4296875 29.66796875 C-86.78879181 29.30661331 -86.14789612 28.94525787 -85.48757935 28.57295227 C-78.9762769 24.89379003 -72.54786623 21.0814891 -66.125 17.25 C-57.4524001 12.09088546 -48.77072715 6.94869699 -40.04400635 1.88162231 C-38.35144965 0.89764363 -36.66177229 -0.09128258 -34.97216797 -1.08032227 C-33.9513916 -1.67127686 -32.93061523 -2.26223145 -31.87890625 -2.87109375 C-30.98244385 -3.39243896 -30.08598145 -3.91378418 -29.16235352 -4.45092773 C-19.12902303 -9.59401233 -8.89777196 -5.48982775 0 0 Z M-30.5 4.3125 C-31.6446875 4.97149292 -31.6446875 4.97149292 -32.8125 5.64379883 C-35.46937485 7.18189334 -38.11025011 8.74520567 -40.75 10.3125 C-41.75740234 10.90724121 -42.76480469 11.50198242 -43.80273438 12.11474609 C-48.27381372 14.75458549 -52.74248403 17.39837767 -57.20263672 20.05664062 C-65.30231339 24.88210973 -73.44863472 29.61804669 -81.625 34.3125 C-85.66898869 36.64183028 -89.71087442 38.9747471 -93.75 41.3125 C-94.51699219 41.75625977 -95.28398438 42.20001953 -96.07421875 42.65722656 C-97.931736 43.73900923 -99.78039058 44.83389684 -101.625 45.9375 C-103.01332031 46.76121094 -103.01332031 46.76121094 -104.4296875 47.6015625 C-107.64975832 49.97595816 -109.96039762 52.73329524 -111.75 56.3125 C-111.85382595 57.65213509 -111.89804946 58.99666214 -111.91062927 60.34025574 C-111.9206749 61.18271851 -111.93072052 62.02518127 -111.94107056 62.89317322 C-111.94690155 63.81940994 -111.95273254 64.74564667 -111.95874023 65.69995117 C-111.96852402 66.6741098 -111.9783078 67.64826843 -111.98838806 68.65194702 C-112.01838223 71.88644029 -112.03974007 75.12089203 -112.05859375 78.35546875 C-112.06516558 79.45918634 -112.0717374 80.56290394 -112.07850838 81.70006752 C-112.11112153 87.54360294 -112.13556618 93.38711998 -112.1550293 99.23071289 C-112.17283818 104.06822246 -112.20764977 108.90514866 -112.25756836 113.74243164 C-112.31774671 119.58032076 -112.34850241 125.41766912 -112.35820198 131.25585365 C-112.36676293 133.48021035 -112.38559662 135.70455237 -112.4149456 137.92873192 C-112.45385794 141.04582005 -112.45489444 144.16080279 -112.44702148 147.27807617 C-112.46702209 148.19419174 -112.48702271 149.11030731 -112.50762939 150.05418396 C-112.4427937 155.783571 -111.31771784 158.79460614 -107.31522846 162.93623066 C-105.01292337 164.9605945 -102.63618304 166.48948063 -99.953125 167.96875 C-98.84308105 168.59080322 -97.73303711 169.21285645 -96.58935547 169.85375977 C-95.39294563 170.50675011 -94.19649267 171.15966145 -93 171.8125 C-91.74670653 172.51010879 -90.49427877 173.20927491 -89.24267578 173.90991211 C-86.67080709 175.34860151 -84.09581366 176.78144075 -81.51855469 178.21044922 C-75.84789226 181.36325065 -70.23798656 184.62098249 -64.625 187.875 C-62.50796577 189.09792162 -60.3907776 190.32057679 -58.2734375 191.54296875 C-56.09893079 192.79943151 -53.92445265 194.05594369 -51.75 195.3125 C-47.50090732 197.7676891 -43.25147847 200.22229457 -39.00152588 202.67599487 C-37.28313114 203.66836679 -35.56514548 204.66144697 -33.84716797 205.65454102 C-32.81479004 206.25065186 -31.78241211 206.8467627 -30.71875 207.4609375 C-29.80544922 207.98864746 -28.89214844 208.51635742 -27.95117188 209.06005859 C-23.92122211 211.35305352 -21.46140946 211.60175407 -16.75 211.3125 C-13.69795877 210.28466437 -13.69795877 210.28466437 -10.6875 208.625 C-10.10081543 208.31957275 -9.51413086 208.01414551 -8.90966797 207.69946289 C-1.33980927 203.68176279 5.99475683 199.2292439 13.34765625 194.83203125 C18.23939155 191.90673295 23.15607261 189.02734377 28.08544922 186.16601562 C32.08955158 183.84118007 36.08661595 181.50442107 40.08251953 179.16552734 C42.28016749 177.87986772 44.47915634 176.59649849 46.67919922 175.31494141 C50.12674399 173.3055287 53.5635402 171.27831173 57 169.25 C58.06581299 168.6307666 59.13162598 168.0115332 60.22973633 167.37353516 C61.22126709 166.78491699 62.21279785 166.19629883 63.234375 165.58984375 C64.10803711 165.07671631 64.98169922 164.56358887 65.88183594 164.03491211 C69.13487339 161.66891425 71.45057911 158.91134178 73.25 155.3125 C73.35382595 153.97286491 73.39804946 152.62833786 73.41062927 151.28474426 C73.4206749 150.44228149 73.43072052 149.59981873 73.44107056 148.73182678 C73.44690155 147.80559006 73.45273254 146.87935333 73.45874023 145.92504883 C73.46852402 144.9508902 73.4783078 143.97673157 73.48838806 142.97305298 C73.51838223 139.73855971 73.53974007 136.50410797 73.55859375 133.26953125 C73.56845149 131.61395486 73.56845149 131.61395486 73.57850838 129.92493248 C73.61112153 124.08139706 73.63556618 118.23788002 73.6550293 112.39428711 C73.67283818 107.55677754 73.70764977 102.71985134 73.75756836 97.88256836 C73.81774671 92.04467924 73.84850241 86.20733088 73.85820198 80.36914635 C73.86676293 78.14478965 73.88559662 75.92044763 73.9149456 73.69626808 C73.95385794 70.57917995 73.95489444 67.46419721 73.94702148 64.34692383 C73.96702209 63.43080826 73.98702271 62.51469269 74.00762939 61.57081604 C73.94281294 55.84312875 72.81886927 52.83145067 68.8183279 48.69031906 C66.4945867 46.64884871 64.09035933 45.11207542 61.3828125 43.62109375 C60.26261719 42.99396484 59.14242187 42.36683594 57.98828125 41.72070312 C56.78388535 41.06374491 55.57945745 40.40684536 54.375 39.75 C53.11500377 39.04910864 51.85590158 38.34660788 50.59765625 37.64257812 C48.67493233 36.56709865 46.75168944 35.49269473 44.82550049 34.4234314 C38.91451205 31.14180456 33.07738846 27.74020104 27.25 24.3125 C18.79993518 19.36647107 10.32907976 14.45763169 1.8347168 9.58813477 C0.57864228 8.86772245 -0.67689987 8.14638106 -1.93188477 7.42407227 C-3.67829518 6.41932991 -5.42698968 5.41856085 -7.17578125 4.41796875 C-8.18036377 3.84199951 -9.18494629 3.26603027 -10.2199707 2.67260742 C-17.85993112 -1.4345256 -23.52241349 0.14775305 -30.5 4.3125 Z " fill="#062032" transform="translate(131.75,6.6875)"/>
<path d="M0 0 C7.4251701 4.36847507 12.89258972 10.8957156 15.5625 19.0625 C16.5625 24.0625 16.5625 24.0625 16.5625 36.0625 C-0.5975 36.0625 -17.7575 36.0625 -35.4375 36.0625 C-33.34507035 46.52464827 -31.71409399 54.35505451 -22.9375 60.9375 C-16.23575257 63.0916331 -8.48009878 63.38570897 -1.9375 60.5 C3.52812043 57.24830177 6.5859155 51.9922535 8.5625 46.0625 C11.2025 46.0625 13.8425 46.0625 16.5625 46.0625 C16.18617011 53.21276786 11.96871437 60.18945323 6.75 65 C-2.10855947 70.73200907 -11.72335441 71.34051517 -22.0546875 69.62890625 C-29.24289774 67.62665392 -34.16191134 62.89161023 -38.75 57.1875 C-42.64636647 49.97200653 -43.94874705 43.27868135 -43.8125 35.125 C-43.80234863 34.24545654 -43.79219727 33.36591309 -43.78173828 32.4597168 C-43.53782423 22.26921477 -41.33725166 13.85638794 -34.4375 6.0625 C-24.67802222 -1.97572949 -12.00548578 -5.40619701 0 0 Z " fill="#041E31" transform="translate(89.4375,79.9375)"/>
<path d="M0 0 C3.46785486 -0.54076958 6.5441759 -0.68412878 10 0 C13.10950674 2.3802894 15.12584797 5.34151888 17.3125 8.5625 C17.89322266 9.36236328 18.47394531 10.16222656 19.07226562 10.98632812 C20.74644293 13.30369219 22.3757179 15.647504 24 18 C24.96993442 19.36521909 25.94230387 20.72871408 26.91796875 22.08984375 C27.60503906 23.05019531 28.29210937 24.01054688 29 25 C30.10885768 23.64967188 31.2115985 22.29432249 32.3125 20.9375 C33.04339844 20.04160156 33.77429688 19.14570312 34.52734375 18.22265625 C36.36924485 15.89334606 38.01604364 13.48902221 39.62890625 10.99609375 C46.5667056 0.46883462 46.5667056 0.46883462 50.92578125 -0.95703125 C53.45950957 -0.93911238 55.57365279 -0.71053552 58 0 C54.90417717 5.8133531 51.17358547 10.80405819 47.0625 15.9375 C42.66521568 21.43527117 38.58354856 26.93290638 35 33 C35.36649658 33.49701416 35.73299316 33.99402832 36.1105957 34.50610352 C39.12582731 38.5955496 42.13985907 42.68587364 45.15234375 46.77734375 C47.55719461 50.04334651 49.96582624 53.3064799 52.37890625 56.56640625 C53.3776527 57.919235 54.3763534 59.27209754 55.375 60.625 C55.84462158 61.25736572 56.31424316 61.88973145 56.7980957 62.54125977 C60 66.88674467 60 66.88674467 60 68 C56.052622 68.94556964 52.92641271 69.12254493 49 68 C45.44611939 64.37152519 42.93170174 60.29871734 40.27783203 55.98974609 C38.17518872 52.71566452 35.77882115 49.68109709 33.375 46.625 C32.52836669 45.53407074 31.68198554 44.44294571 30.8359375 43.3515625 C30.23007813 42.57554688 29.62421875 41.79953125 29 41 C25.54200868 44.21950916 22.87355469 47.82785563 20.1875 51.6875 C19.29597214 52.93387941 18.40404416 54.17997271 17.51171875 55.42578125 C15.99228359 57.56275301 14.5530088 59.70295248 13.14453125 61.91796875 C9.24420636 67.74529502 9.24420636 67.74529502 5.34765625 68.54296875 C2.82645901 68.56064896 0.49295676 68.33418503 -2 68 C2.18069306 61.59921476 6.57136973 55.3900563 11.125 49.25 C11.73214844 48.42628906 12.33929688 47.60257813 12.96484375 46.75390625 C13.55652344 45.95339844 14.14820312 45.15289062 14.7578125 44.328125 C15.31629883 43.56951172 15.87478516 42.81089844 16.45019531 42.02929688 C18 40 18 40 20.4921875 37.234375 C22.2642388 35.11821173 22.2642388 35.11821173 21.77636719 32.62866211 C20.93638713 29.78461643 19.87450598 28.06019887 18.0859375 25.70703125 C17.49248535 24.91603027 16.8990332 24.1250293 16.28759766 23.31005859 C15.65644043 22.48586426 15.0252832 21.66166992 14.375 20.8125 C13.09818619 19.11386137 11.82213688 17.4146478 10.546875 15.71484375 C9.93392578 14.90257324 9.32097656 14.09030273 8.68945312 13.25341797 C0 1.6632948 0 1.6632948 0 0 Z " fill="#052032" transform="translate(113,80)"/>
<path d="M0 0 C6.69390529 3.90935042 9.9917664 10.23087426 12.2421875 17.421875 C12.6875 19.5 12.6875 19.5 12.6875 23.5 C-2.1625 23.5 -17.0125 23.5 -32.3125 23.5 C-31.0925989 13.7407912 -29.05812527 8.79609946 -22.19140625 1.9453125 C-15.96620844 -2.8433012 -7.08358629 -3.07863558 0 0 Z " fill="#F5F6F6" transform="translate(86.3125,86.5)"/>
<path d="M0 0 C0 3.75832067 -0.93607224 4.3698162 -3.4375 7.0625 C-6.02679823 9.8184536 -6.02679823 9.8184536 -8 13 C-8.66 12.67 -9.32 12.34 -10 12 C-9.09232898 10.55680308 -8.17343894 9.12065894 -7.25 7.6875 C-6.48429687 6.48673828 -6.48429687 6.48673828 -5.703125 5.26171875 C-3.99722239 2.99631139 -2.34191855 1.57315833 0 0 Z " fill="#142537" transform="translate(59,83)"/>
</svg>
