<svg width="581" height="195" version="1.1" xmlns="http://www.w3.org/2000/svg" desc="Created with imagetracer.js version 1.2.6" ><path fill="rgb(3,6,3)" stroke="rgb(3,6,3)" stroke-width="1" opacity="0.8784313725490196" d="M 334.5 62 Q 340.3 61.2 342 64.5 L 343 66.5 L 343 128.5 L 341 134 L 334.5 135 L 331 131.5 L 331 65.5 L 334.5 62 Z " /><path fill="rgb(3,6,3)" stroke="rgb(3,6,3)" stroke-width="1" opacity="0.8784313725490196" d="M 487.5 62 Q 492.6 61.4 494 64.5 Q 496.5 68 495 75.5 L 494 76.5 L 494 89.5 L 493 90.5 L 493 126.5 L 494 130.5 L 491.5 134 L 486.5 135 L 484 134 Q 485.1 131.3 482.5 132 Q 477 136.5 465.5 135 Q 455.3 132.3 450 124.5 Q 445.8 118.7 447 107.5 Q 449 95.5 457.5 90 L 466.5 86 L 475.5 86 L 482 88 L 483 67.5 L 485.5 63 L 487.5 62 Z M 468 98 L 465 99 Q 459 102 458 110 L 459 117 L 467 123 Q 476 125 480 120 L 481 119 L 481 103 Q 478 96 468 98 Z " /><path fill="rgb(3,6,3)" stroke="rgb(3,6,3)" stroke-width="1" opacity="0.8784313725490196" d="M 508.5 62 Q 514.3 61.2 516 64.5 L 517 66.5 L 517 128.5 L 515 134 L 508.5 135 L 505 131.5 L 505 65.5 L 508.5 62 Z " /><path fill="rgb(3,6,3)" stroke="rgb(3,6,3)" stroke-width="1" opacity="0.8784313725490196" d="M 314.5 66 L 321 67 Q 324.1 71.6 323 81.5 L 320.5 85 L 315.5 86 L 312 83.5 L 309.5 79 Q 296.3 79.3 292 88.5 L 284 101.5 Q 281.6 106.6 283 115.5 L 288.5 122 L 297.5 123 L 313.5 114 L 316.5 114 L 320 116.5 L 321 121.5 L 318.5 125 L 305.5 133 L 298.5 135 L 289.5 135 Q 279.3 132.3 274 124.5 Q 270 118.5 270 108.5 Q 274.7 84.2 291.5 72 L 298.5 68 L 313.5 67 L 314.5 66 Z " /><path fill="rgb(3,6,3)" stroke="rgb(3,6,3)" stroke-width="1" opacity="0.8784313725490196" d="M 371.5 86 Q 385.7 84.8 390 93.5 Q 396.2 100.8 394 116.5 Q 391.6 127.6 383.5 133 Q 378.7 137.2 368.5 136 Q 359.4 133.5 355 126.5 Q 349.9 119.6 352 105.5 Q 354.1 96.1 360.5 91 L 371.5 86 Z M 372 98 L 369 100 L 364 108 Q 362 118 366 122 L 370 124 L 378 123 Q 382 120 383 114 L 383 109 L 381 102 Q 380 97 372 98 Z " /><path fill="rgb(3,6,3)" stroke="rgb(3,6,3)" stroke-width="1" opacity="0.8784313725490196" d="M 404.5 86 Q 411.4 85.1 413 89.5 L 412 116.5 L 413 122 Q 416.3 124.1 424.5 123 L 429 120.5 L 428 103.5 L 429 102.5 L 429 90.5 L 431.5 87 L 437.5 86 L 441 88.5 L 442 91.5 L 441 92.5 L 441 132.5 L 438.5 135 L 432.5 136 Q 432 132.5 427.5 133 Q 422.8 136.3 413.5 135 Q 406.1 133.9 403 128.5 L 400 115.5 L 400 94.5 L 402 88.5 L 404.5 86 Z " /><path fill="rgb(3,6,3)" stroke="rgb(3,6,3)" stroke-width="1" opacity="0.8784313725490196" d="M 528.5 86 Q 533.6 85.4 535 88.5 L 549.5 113 L 559 92.5 L 564.5 86 L 568.5 86 L 572 88 L 573 92.5 L 550 139.5 L 545 154.5 L 541.5 158 Q 535.7 158.8 534 155.5 L 533 150.5 L 542 129.5 L 542 126.5 L 524 94.5 L 524 89.5 L 528.5 86 Z " /><path fill="rgb(0,0,0)" stroke="rgb(0,0,0)" stroke-width="1" opacity="0" d="M 0 0 L 581 0 L 581 195 L 0 195 L 0 0 Z M 159 35 Q 148 37 141 43 Q 131 50 130 64 L 126 60 L 116 52 L 106 50 L 98 50 L 89 52 L 82 55 L 71 63 L 58 79 L 59 80 L 77 66 L 93 60 L 108 60 L 110 61 L 112 61 L 120 65 Q 129 73 136 84 L 138 68 L 144 59 Q 149 51 161 50 L 164 49 L 176 50 L 186 55 Q 197 61 197 79 L 198 82 L 196 92 L 193 98 L 193 99 L 209 94 L 210 95 L 218 95 L 231 101 Q 240 107 242 120 L 242 130 L 240 138 L 232 150 L 222 156 L 215 158 L 203 158 L 201 158 L 197 156 Q 192 154 193 158 L 196 160 L 209 164 L 223 164 L 230 162 L 239 157 Q 251 148 255 131 L 255 116 Q 253 105 248 99 L 241 91 L 229 86 Q 224 87 223 85 L 213 85 L 207 86 L 208 84 L 208 69 Q 206 58 200 51 Q 194 42 184 38 L 175 35 L 159 35 Z M 335 62 L 331 66 L 331 132 L 335 135 L 341 134 L 343 129 L 343 67 L 342 65 Q 340 61 335 62 Z M 488 62 L 486 63 L 483 68 L 482 88 L 476 86 L 467 86 L 458 90 Q 449 95 447 108 Q 446 119 450 125 Q 455 132 466 135 Q 477 137 483 132 Q 485 131 484 134 L 487 135 L 492 134 L 494 131 L 493 127 L 493 91 L 494 90 L 494 77 L 495 76 Q 497 68 494 65 Q 493 61 488 62 Z M 509 62 L 505 66 L 505 132 L 509 135 L 515 134 L 517 129 L 517 67 L 516 65 Q 514 61 509 62 Z M 315 66 L 314 67 L 299 68 L 292 72 Q 275 84 270 109 Q 270 119 274 125 Q 279 132 290 135 L 299 135 L 306 133 L 319 125 L 321 122 L 320 117 L 317 114 L 314 114 L 298 123 L 289 122 L 283 116 Q 282 107 284 102 L 292 89 Q 296 79 310 79 L 312 84 L 316 86 L 321 85 L 323 82 Q 324 72 321 67 L 315 66 Z M 372 86 L 361 91 Q 354 96 352 106 Q 350 120 355 127 Q 359 134 369 136 Q 379 137 384 133 Q 392 128 394 117 Q 396 101 390 94 Q 386 85 372 86 Z M 405 86 L 402 89 L 400 95 L 400 116 L 403 129 Q 406 134 414 135 Q 423 136 428 133 Q 432 133 433 136 L 439 135 L 441 133 L 441 93 L 442 92 L 441 89 L 438 86 L 432 87 L 429 91 L 429 103 L 428 104 L 429 121 L 425 123 Q 416 124 413 122 L 412 117 L 413 90 Q 411 85 405 86 Z M 529 86 L 524 90 L 524 95 L 542 127 L 542 130 L 533 151 L 534 156 Q 536 159 542 158 L 545 155 L 550 140 L 573 93 L 572 88 L 569 86 L 565 86 L 559 93 L 550 113 L 535 89 Q 534 85 529 86 Z M 44 89 L 32 92 L 19 100 Q 10 107 7 119 L 23 109 L 41 104 L 56 104 L 67 106 L 89 116 L 108 128 Q 123 135 143 138 L 161 138 L 166 137 Q 181 134 192 127 Q 199 121 204 112 L 204 108 L 200 113 Q 195 119 187 122 L 174 125 L 151 125 L 150 124 L 137 123 L 123 118 L 98 102 L 78 93 L 62 89 L 44 89 Z " /><path fill="rgb(0,0,0)" stroke="rgb(0,0,0)" stroke-width="1" opacity="0" d="M 371.5 98 Q 379.5 96.5 381 101.5 L 383 108.5 L 383 113.5 Q 382.1 120.1 377.5 123 L 369.5 124 L 366 122 Q 362.2 118.3 364 107.5 L 368.5 100 L 371.5 98 Z " /><path fill="rgb(0,0,0)" stroke="rgb(0,0,0)" stroke-width="1" opacity="0" d="M 467.5 98 Q 478.3 96.2 481 102.5 L 481 118.5 L 479.5 120 Q 476 124.5 466.5 123 L 459 116.5 L 458 109.5 Q 459.1 102.1 464.5 99 L 467.5 98 Z " /><path fill="rgb(135,51,126)" stroke="rgb(135,51,126)" stroke-width="1" opacity="0.8470588235294118" d="M 158.5 35 L 174.5 35 L 183.5 38 Q 193.8 42.2 200 50.5 Q 206 57.5 208 68.5 L 208 83.5 L 207 86 L 212.5 85 L 222.5 85 Q 223.7 87.2 228.5 86 L 240.5 91 L 248 98.5 Q 253.1 105.4 255 115.5 L 255 130.5 Q 251.2 148.2 238.5 157 L 229.5 162 L 222.5 164 L 208.5 164 L 195.5 160 L 193 157.5 Q 192.1 154.5 196.5 156 L 200.5 158 L 202.5 158 L 214.5 158 L 221.5 156 L 232 150 L 240 137.5 L 242 129.5 L 242 119.5 Q 239.6 106.9 230.5 101 L 217.5 95 L 209 94.5 L 211.5 93 L 224.5 96 Q 232.3 99.3 237 105.5 L 243 118.5 L 243 130.5 Q 240.3 145.8 229.5 153 L 222.5 157 L 214.5 159 L 199 159.5 L 209.5 163 L 220.5 163 L 233.5 159 L 241 154 Q 239.9 151.3 242.5 152 L 248 145.5 L 253 135.5 L 254 116.5 L 251 106.5 L 243 94 L 238.5 91 L 227.5 87 L 214.5 86 L 213.5 87 L 206 87 Q 208.2 80.3 207 68.5 L 199 50 L 182.5 39 L 176.5 37 L 166.5 36 L 165.5 37 L 155.5 37 L 149.5 39 L 139 47.5 Q 139.7 50.1 137 49 L 137 52 L 135.5 52 Q 131.3 53.8 134 55.5 Q 132.8 59.3 136.5 58 L 135.5 60 L 132 59 L 132 62.5 L 134 66 L 126 69.5 L 130 72.5 Q 129 68.8 132 70 Q 130.9 73.3 135 72 L 138 65.5 L 137 63 L 143 58.5 L 145.5 55 L 148.5 53 L 155.5 49 L 168.5 47 L 181.5 51 L 192 59.5 L 197 68.5 L 199 79.5 L 197 80.5 L 197 78.5 Q 196.7 61.3 185.5 55 L 175.5 50 L 163.5 49 L 160.5 50 Q 149.4 51.4 144 58.5 L 138 67.5 L 135.5 84 Q 129.1 72.9 119.5 65 L 111.5 61 L 109.5 61 L 107.5 60 L 92.5 60 L 76.5 66 L 63 75 Q 64.1 77.7 61.5 77 L 58.5 79 L 60 76.5 L 70.5 63 L 81.5 55 L 88.5 52 L 97.5 50 L 105.5 50 L 115.5 52 L 126 59.5 L 129.5 64 Q 131 49.5 140.5 43 Q 147.5 37 158.5 35 Z M 116 55 L 114 58 L 116 57 L 116 55 Z M 118 57 Q 117 61 120 60 Q 121 56 118 57 Z M 123 59 Q 120 63 124 62 L 123 59 Z M 122 62 L 120 64 L 122 64 L 122 62 Z M 124 63 Q 122 68 128 66 L 127 65 Q 128 62 124 63 Z M 132 73 L 131 76 L 133 79 L 135 79 L 135 74 L 132 73 Z M 196 157 L 197 159 L 199 159 L 196 157 Z " /><path fill="rgb(135,51,126)" stroke="rgb(135,51,126)" stroke-width="1" opacity="0.8470588235294118" d="M 197.5 82 L 198 88.5 L 194 96.5 L 195.5 97 L 198.5 95 L 207.5 94 L 207.5 95 L 199.5 96 L 192.5 99 L 193 97.5 Q 197.2 91.7 197.5 82 Z " /><path fill="rgb(135,51,126)" stroke="rgb(135,51,126)" stroke-width="1" opacity="0.8470588235294118" d="M 43.5 89 L 61.5 89 L 77.5 93 L 97.5 102 L 122.5 118 L 136.5 123 L 149.5 124 L 150.5 125 L 173.5 125 L 186.5 122 Q 195.2 119.2 200 112.5 L 203.5 108 L 204 111.5 Q 199.4 120.9 191.5 127 Q 180.5 134 165.5 137 L 160.5 138 L 142.5 138 Q 123.2 134.8 107.5 128 L 88.5 116 L 66.5 106 L 55.5 104 L 40.5 104 L 22.5 109 L 7 119 Q 9.7 107.1 18.5 100 L 31.5 92 L 43.5 89 Z M 65 91 L 62 96 L 66 96 L 66 95 L 65 91 Z M 70 97 Q 68 101 72 100 L 73 103 Q 74 105 78 104 Q 80 99 82 103 L 81 103 L 79 107 L 78 106 Q 75 105 76 109 L 84 111 L 102 123 L 106 123 L 105 125 L 119 131 L 144 137 L 159 137 L 170 135 Q 185 131 195 123 L 199 118 L 199 116 L 188 123 L 168 127 L 166 126 L 140 125 L 127 121 L 100 106 L 97 103 Q 92 104 93 101 L 90 101 Q 88 99 87 102 L 85 102 L 85 97 L 82 98 L 79 97 L 78 99 L 70 97 Z M 63 101 L 63 103 L 63 104 Q 68 106 67 102 L 63 101 Z " /><path fill="rgb(135,51,126)" stroke="rgb(135,51,126)" stroke-width="1" opacity="0.8470588235294118" d="M 82 106 L 88 108 Q 89.3 111 85.5 110 L 82 108 L 82 106 Z " /><path fill="rgb(202,39,127)" stroke="rgb(202,39,127)" stroke-width="1" opacity="0.996078431372549" d="M 166.5 36 L 176.5 37 L 182.5 39 L 199 50 L 207 68.5 L 207 82.5 L 206 87 L 222.5 86 L 238.5 91 L 243 94 L 249 102.5 L 253 111.5 L 254 130.5 L 251 140.5 L 242.5 152 L 239.5 154 Q 230.4 164.4 209.5 163 L 201.5 161 L 195 157.5 L 196.5 157 L 199.5 159 L 214.5 159 Q 229.8 156.3 237 145.5 L 242 135.5 L 243 118.5 Q 240 106.5 231.5 100 L 224.5 96 L 211.5 93 L 210.5 94 L 202.5 94 L 194.5 97 L 196 94.5 L 199 79.5 L 197 68.5 Q 193.9 60.1 187.5 55 Q 179 47.5 163.5 47 Q 161.2 49.7 155.5 49 L 147 53 Q 148.1 55.7 145.5 55 L 138.5 63 Q 136.3 62.3 137 64.5 L 137 66.5 L 135 72 L 132 72 Q 133 69 130 70 L 129.5 73 L 126 69.5 L 127.5 68 L 130.5 68 L 134 66 L 132 62.5 L 132 59 L 135.5 60 L 136.5 58 Q 132.8 59.3 134 55.5 Q 131.3 53.8 135.5 52 L 137 52 L 137 49 Q 139.7 50.1 139 47.5 L 149.5 39 L 155.5 37 L 165.5 37 L 166.5 36 Z " /><path fill="rgb(202,39,127)" stroke="rgb(202,39,127)" stroke-width="1" opacity="0.996078431372549" d="M 115.5 55 L 116 56.5 L 114 57.5 L 115.5 55 Z " /><path fill="rgb(202,39,127)" stroke="rgb(202,39,127)" stroke-width="1" opacity="0.996078431372549" d="M 118 57 Q 121.3 55.9 120 60 Q 116.7 61.1 118 57 Z " /><path fill="rgb(202,39,127)" stroke="rgb(202,39,127)" stroke-width="1" opacity="0.996078431372549" d="M 122.5 59 L 124 62 L 122 62 Q 123.1 64.7 120.5 64 L 119.5 62 Q 120.8 64.3 122 61.5 L 122.5 59 Z " /><path fill="rgb(202,39,127)" stroke="rgb(202,39,127)" stroke-width="1" opacity="0.996078431372549" d="M 124 63 Q 127.7 61.5 127 64.5 L 127.5 66 Q 122.3 67.5 124 63 Z " /><path fill="rgb(202,39,127)" stroke="rgb(202,39,127)" stroke-width="1" opacity="0.996078431372549" d="M 131.5 73 L 135 74 L 135 79 L 133 79 L 131 75.5 L 131.5 73 Z " /><path fill="rgb(202,39,127)" stroke="rgb(202,39,127)" stroke-width="1" opacity="0.996078431372549" d="M 64.5 91 L 66 94.5 L 66 96 L 62 96 L 64.5 91 Z " /><path fill="rgb(202,39,127)" stroke="rgb(202,39,127)" stroke-width="1" opacity="0.996078431372549" d="M 70 97 L 78 99 L 78.5 97 L 81.5 98 L 85 97 L 85 102 L 86.5 102 L 87.5 100 L 86 99.5 L 87.5 99 Q 88.8 102 93 101 Q 91.7 104.3 96.5 103 L 99.5 106 L 126.5 121 L 139.5 125 L 165.5 126 L 167.5 127 L 187.5 123 L 199.5 115 L 199 116.5 L 195 123 Q 184.8 131.2 169.5 135 L 158.5 137 L 143.5 137 L 118.5 131 L 105 124.5 L 105.5 123 L 101.5 123 L 83.5 111 L 76 109 Q 74.5 105.3 77.5 106 L 79 106.5 L 80.5 103 L 82 102.5 Q 79.7 98.7 77.5 104 Q 73.8 104.8 73 102.5 L 71.5 100 Q 68.5 100.7 70 97 Z M 82 106 L 82 108 L 86 110 Q 89 111 88 108 L 82 106 Z " /><path fill="rgb(202,39,127)" stroke="rgb(202,39,127)" stroke-width="1" opacity="0.996078431372549" d="M 63 101 L 67 102 Q 68.3 105.7 62.5 104 L 63 102.5 L 63 101 Z " /></svg>