<?xml version="1.0" encoding="UTF-8"?>
<svg version="1.1" xmlns="http://www.w3.org/2000/svg" width="582" height="197">
<path d="M0 0 C0.98613281 0.38285156 0.98613281 0.38285156 1.9921875 0.7734375 C12.75889883 5.33986371 18.62197111 14.58654557 23 25 C23.90992305 27.72976915 24.12844593 29.35088974 24.1328125 32.16015625 C24.13410156 32.95357422 24.13539063 33.74699219 24.13671875 34.56445312 C24.13285156 35.38880859 24.12898437 36.21316406 24.125 37.0625 C24.12886719 37.89072266 24.13273438 38.71894531 24.13671875 39.57226562 C24.13478516 40.76045898 24.13478516 40.76045898 24.1328125 41.97265625 C24.13168457 42.69718994 24.13055664 43.42172363 24.12939453 44.16821289 C24 46 24 46 23 48 C23.53625 47.84015625 24.0725 47.6803125 24.625 47.515625 C34.16313935 45.44484475 45.73439048 46.51323585 54.31640625 51.2890625 C63.00049012 57.45196073 68.70658602 65.55262651 71 76 C72.23806779 91.08754436 70.25110165 102.14616637 60.37109375 113.9453125 C53.65502397 121.14444067 45.26051171 125.4788547 35.38671875 126.30078125 C25.08562241 126.33341408 17.0606579 125.00720568 8 120 C8 119.34 8 118.68 8 118 C8.60585937 118.0721875 9.21171875 118.144375 9.8359375 118.21875 C21.59610429 119.52141463 34.16745146 120.46167999 44.375 113.3125 C52.33557819 106.56007608 55.91710881 99.19688467 57.28125 88.87109375 C57.67411524 80.76824823 54.88778695 72.96843938 49.78515625 66.75 C43.60669299 60.69321326 34.18564157 57.15988734 25.58203125 56.9375 C20.33970639 57.37060085 15.83815398 58.99800525 11 61 C10.01 61.33 9.02 61.66 8 62 C8.6123575 59.27708995 9.36779633 57.20555992 10.5625 54.625 C13.6199567 46.56717077 13.02844761 36.80259481 9.93359375 28.8359375 C8.62500676 26.2625656 6.89882535 24.1607323 5 22 C5 21.34 5 20.68 5 20 C4.43410156 19.72285156 3.86820313 19.44570313 3.28515625 19.16015625 C1.77348638 18.39269308 0.28006835 17.5880605 -1.19140625 16.74609375 C-9.37722424 12.2283853 -17.65660797 10.66769573 -26.80859375 13.15625 C-34.80864482 16.23648357 -40.25046389 21.32066162 -44 29 C-46.22462701 34.991325 -47.42547902 40.61781468 -47 47 C-50.96621218 45.67792927 -52.05102699 43.17679925 -54.1875 39.8125 C-60.44530162 30.42324545 -67.07210937 25.98030846 -78.11328125 23.53125 C-89.53287357 21.69409438 -100.39061301 24.88929256 -110 31 C-113.79870197 33.76875087 -117.44374434 36.71376321 -121.06640625 39.70703125 C-124 42 -124 42 -127 43 C-125.09350077 33.27471181 -114.67891535 24.19981239 -106.8984375 18.87890625 C-99.15239984 14.25627087 -92.8095915 11.61654252 -83.6875 11.6875 C-82.933479 11.69313965 -82.17945801 11.6987793 -81.40258789 11.70458984 C-70.2290466 11.94820078 -62.75085997 16.01138359 -55 24 C-54.88785156 23.39414062 -54.77570313 22.78828125 -54.66015625 22.1640625 C-52.56656868 13.26973622 -47.70150594 7.1664514 -40.140625 2.07421875 C-28.55926096 -4.48333738 -12.25523294 -5.89686941 0 0 Z " fill="#A72981" transform="translate(185,35)"/>
<path d="M0 0 C1.051875 0.49113281 2.10375 0.98226562 3.1875 1.48828125 C10.00858033 4.73604564 16.22943232 8.37153295 22.5 12.5625 C32.533228 19.22908541 42.88096377 24.51642959 55 26 C55.86238281 26.10957031 56.72476563 26.21914062 57.61328125 26.33203125 C74.01465804 28.03341888 94.17527503 29.61781996 108 19 C109.99677439 16.93807175 111.822231 14.83492441 113.58984375 12.57421875 C114.05519531 12.05472656 114.52054688 11.53523438 115 11 C115.66 11 116.32 11 117 11 C115.211762 18.74903132 109.37798387 25.64576024 103.26171875 30.59375 C97.90921195 33.9217335 91.92956124 35.95091778 86 38 C85.04222656 38.34417969 84.08445313 38.68835938 83.09765625 39.04296875 C60.79287147 45.85920857 35.24017628 39.36439407 15.06982422 29.10449219 C10.4234083 26.62508836 5.9422235 23.8850954 1.46875 21.109375 C-15.96142354 10.36076799 -33.8996544 6.53804901 -54.25 9.5 C-63.49048078 11.78119204 -72.68252419 17.05538395 -80 23 C-80.66 23 -81.32 23 -82 23 C-81.56231536 14.4651495 -75.25880549 7.52615782 -69.32421875 1.8515625 C-48.85602834 -14.45418919 -21.85340871 -11.08191322 0 0 Z " fill="#952B86" transform="translate(89,94)"/>
<path d="M0 0 C1.0209375 0.03287109 1.0209375 0.03287109 2.0625 0.06640625 C2.743125 0.06511719 3.42375 0.06382813 4.125 0.0625 C6.0625 0.62890625 6.0625 0.62890625 7.83203125 2.09375 C9.69943341 5.94119129 9.08651105 9.60694616 8.75 13.75390625 C8.21180067 21.97009324 8.0225047 30.12068257 8.08984375 38.3515625 C8.09648544 39.29082581 8.10312714 40.23008911 8.10997009 41.19781494 C8.1395134 45.02755691 8.17245128 48.85694093 8.23251343 52.68634033 C8.27464414 55.41071436 8.29876806 58.13477201 8.3203125 60.859375 C8.33895859 61.68454117 8.35760468 62.50970734 8.3768158 63.35987854 C8.39190522 66.73527854 8.32057801 69.16169685 6.66967773 72.15039062 C5.0625 73.62890625 5.0625 73.62890625 3.08984375 74.0546875 C-2.71527778 73.74001736 -2.71527778 73.74001736 -4.9375 72.62890625 C-5.9275 72.95890625 -6.9175 73.28890625 -7.9375 73.62890625 C-16.97270411 74.39067906 -25.3073299 75.00592831 -32.98046875 69.4765625 C-38.72900008 64.04930637 -40.66288145 58.67952987 -41.1875 50.94140625 C-41.05490019 43.13275076 -38.53246428 35.20970606 -32.9375 29.62890625 C-26.43113335 23.94485201 -19.51218228 24.07258388 -11.31640625 24.35546875 C-7.9375 24.62890625 -7.9375 24.62890625 -5.9375 25.62890625 C-5.92291748 25.04923096 -5.90833496 24.46955566 -5.89331055 23.87231445 C-5.81851472 21.22803072 -5.72196102 18.58496623 -5.625 15.94140625 C-5.60244141 15.02939453 -5.57988281 14.11738281 -5.55664062 13.17773438 C-5.09569307 1.65404553 -5.09569307 1.65404553 0 0 Z M-25.8125 41.25390625 C-27.55916908 44.94131876 -28.06124148 48.55999511 -27.9375 52.62890625 C-26.3982027 56.35562603 -24.43743604 58.6289428 -20.9375 60.62890625 C-15.57963628 62.29579719 -12.73314645 61.07374562 -7.9375 58.62890625 C-5.82722389 56.51863014 -6.660548 52.15462288 -6.625 49.25390625 C-6.58149414 48.08214844 -6.58149414 48.08214844 -6.53710938 46.88671875 C-6.42211895 42.33742164 -6.42211895 42.33742164 -8.78125 38.64453125 C-15.18927443 35.62625888 -20.40887425 36.57076394 -25.8125 41.25390625 Z " fill="#FDFDFD" transform="translate(487.9375,58.37109375)"/>
<path d="M0 0 C2.07773608 -0.05697018 4.15836713 0.018995 6.234375 0.12109375 C9.58088241 3.46760116 9.409475 7.09596867 9.484375 11.68359375 C9.51015625 12.63363281 9.5359375 13.58367187 9.5625 14.5625 C9.234375 17.12109375 9.234375 17.12109375 7.96875 18.93359375 C5.32883856 20.74110068 3.2261237 20.59323203 0.109375 20.484375 C-1.765625 20.12109375 -1.765625 20.12109375 -3.765625 18.24609375 C-4.765625 16.12109375 -4.765625 16.12109375 -4.765625 14.12109375 C-10.55795951 14.32433356 -13.81147233 15.16287862 -18.03515625 19.18359375 C-24.71290242 26.66025764 -31.0733715 35.67822903 -30.765625 46.12109375 C-29.5692461 50.41398275 -28.62155013 52.46422098 -25.078125 55.18359375 C-20.77573107 56.40125241 -17.77610072 55.84901148 -13.765625 54.12109375 C-12.08290374 53.10556611 -10.41674526 52.06223122 -8.765625 50.99609375 C-4.0640473 48.04764672 -1.26577411 47.05966147 4.234375 48.12109375 C6.296875 50.30859375 6.296875 50.30859375 7.234375 53.12109375 C6.98953789 56.1962479 6.61696808 57.70189723 4.51953125 60 C-6.01864927 67.98234764 -15.62294685 70.69490185 -28.765625 69.12109375 C-35.42200042 66.85552019 -40.76709766 61.07007389 -43.90234375 54.875 C-46.78742027 45.67147534 -45.43323963 35.39750751 -41.30859375 26.859375 C-35.646205 16.81042686 -27.51667031 4.40417966 -15.765625 1.12109375 C-10.51666597 0.34742253 -5.29118088 0.231676 0 0 Z " fill="#FCFCFC" transform="translate(315.765625,62.87890625)"/>
<path d="M0 0 C3 0 3 0 6 2 C6.34057617 4.15478516 6.34057617 4.15478516 6.29296875 6.7890625 C6.28330078 7.73007813 6.27363281 8.67109375 6.26367188 9.640625 C6.23853516 10.62546875 6.21339844 11.6103125 6.1875 12.625 C6.17396484 13.61757812 6.16042969 14.61015625 6.14648438 15.6328125 C6.11105743 18.08908072 6.06166196 20.54427285 6 23 C7.57201172 22.26910156 7.57201172 22.26910156 9.17578125 21.5234375 C17.66821156 17.90119518 27.58669768 19.8700162 36 23 C44.87843121 27.92417193 50.6011728 35.57043326 54 45 C56.63492628 54.26733998 56.58383357 67.43546886 52 76 C46.0345767 86.57506858 38.30910103 94.20751716 26.67578125 98.1171875 C14.52945012 101.03437223 2.80020858 98.96853632 -8 93 C-8 92.34 -8 91.68 -8 91 C-7.39414063 91.0721875 -6.78828125 91.144375 -6.1640625 91.21875 C5.59610429 92.52141463 18.16745146 93.46167999 28.375 86.3125 C36.33557819 79.56007608 39.91710881 72.19688467 41.28125 61.87109375 C41.67411524 53.76824823 38.88778695 45.96843938 33.78515625 39.75 C27.60669299 33.69321326 18.18564157 30.15988734 9.58203125 29.9375 C4.33970639 30.37060085 -0.16184602 31.99800525 -5 34 C-6.485 34.495 -6.485 34.495 -8 35 C-7.30058404 31.85262818 -6.23921302 28.97411124 -5 26 C-4.34 26 -3.68 26 -3 26 C-2.98018066 25.31897217 -2.96036133 24.63794434 -2.93994141 23.9362793 C-2.84473017 20.85296083 -2.73503534 17.77032351 -2.625 14.6875 C-2.5940625 13.61564453 -2.563125 12.54378906 -2.53125 11.43945312 C-2.47324219 9.89741211 -2.47324219 9.89741211 -2.4140625 8.32421875 C-2.36693115 6.9024231 -2.36693115 6.9024231 -2.31884766 5.4519043 C-2 3 -2 3 0 0 Z " fill="#DB287A" transform="translate(201,62)"/>
<path d="M0 0 C8.22156372 2.96153102 13.37661458 17.30974104 17.1796875 24.78515625 C17.71078125 23.69976562 18.241875 22.614375 18.7890625 21.49609375 C19.5023866 20.05067386 20.21594051 18.60536736 20.9296875 17.16015625 C21.27773438 16.44730469 21.62578125 15.73445313 21.984375 15 C24.5300106 9.8615874 27.08754257 4.87730118 31.1796875 0.78515625 C35.51612351 0.46977909 37.50621979 0.33617778 41.1796875 2.78515625 C42.13454566 5.56875643 42.36221116 7.19398885 41.48974609 10.01977539 C41.10641113 10.77895264 40.72307617 11.53812988 40.328125 12.3203125 C39.89516113 13.1983252 39.46219727 14.07633789 39.01611328 14.98095703 C38.29270752 16.39997314 38.29270752 16.39997314 37.5546875 17.84765625 C36.53735548 19.90801218 35.52181114 21.96925151 34.5078125 24.03125 C33.96705078 25.1229248 33.42628906 26.21459961 32.86914062 27.33935547 C30.22609169 32.73010586 27.67648214 38.16324035 25.14483643 43.60690308 C24.32932797 45.3572692 23.50729283 47.10458987 22.68505859 48.85180664 C19.55184877 55.57472368 16.75966456 62.331455 14.25341797 69.31396484 C13.1796875 71.78515625 13.1796875 71.78515625 11.1796875 72.78515625 C3.93830819 73.35986889 3.93830819 73.35986889 1.1171875 71.22265625 C-1.22911524 65.12226913 2.23537073 58.66002978 4.6796875 53.03515625 C5.31580523 51.54066279 5.95124974 50.04588255 6.5859375 48.55078125 C6.86759766 47.89883789 7.14925781 47.24689453 7.43945312 46.57519531 C8.08863428 45.00534166 8.64248394 43.39676693 9.1796875 41.78515625 C8.18321244 39.36116006 8.18321244 39.36116006 6.609375 36.77734375 C6.0421875 35.78992188 5.475 34.8025 4.890625 33.78515625 C4.28476562 32.75390625 3.67890625 31.72265625 3.0546875 30.66015625 C1.88520199 28.63684282 0.71592833 26.61340692 -0.453125 24.58984375 C-1.0212793 23.61063965 -1.58943359 22.63143555 -2.17480469 21.62255859 C-2.71782227 20.68621582 -3.26083984 19.74987305 -3.8203125 18.78515625 C-4.3246582 17.91713379 -4.82900391 17.04911133 -5.34863281 16.15478516 C-5.80077148 15.36249512 -6.25291016 14.57020508 -6.71875 13.75390625 C-7.11497559 13.06490234 -7.51120117 12.37589844 -7.91943359 11.66601562 C-9.25028248 8.88746283 -9.39257723 6.78954611 -8.8203125 3.78515625 C-6.99305597 0.35905026 -3.75667216 -0.15824809 0 0 Z " fill="#FBFBFB" transform="translate(532.8203125,82.21484375)"/>
<path d="M0 0 C2.69043591 0.49546641 3.37157965 1.12894719 4.97265625 3.36328125 C5.23418694 5.95102896 5.32224063 8.29227778 5.265625 10.875 C5.26138016 11.60322464 5.25713531 12.33144928 5.25276184 13.08174133 C5.23598358 15.40513252 5.1983348 17.72765275 5.16015625 20.05078125 C5.14510822 21.62694059 5.13142002 23.20311354 5.11914062 24.77929688 C5.0860831 28.64096002 5.03430819 32.50197303 4.97265625 36.36328125 C9.59265625 36.03328125 14.21265625 35.70328125 18.97265625 35.36328125 C18.92044922 32.20185547 18.92044922 32.20185547 18.8671875 28.9765625 C18.84375952 26.92457431 18.82556154 24.87260129 18.80786133 22.82055664 C18.79281865 21.39958984 18.77237921 19.97866912 18.74633789 18.55786133 C18.70975278 16.50981239 18.69288528 14.46237975 18.6796875 12.4140625 C18.66397705 11.18341064 18.6482666 9.95275879 18.63208008 8.68481445 C19.00103918 5.08647137 19.77388153 3.20809113 21.97265625 0.36328125 C24.1640625 -0.1953125 24.1640625 -0.1953125 26.53515625 -0.07421875 C27.32019531 -0.05230469 28.10523438 -0.03039062 28.9140625 -0.0078125 C30.97265625 0.36328125 30.97265625 0.36328125 32.97265625 2.36328125 C33.23335266 4.29197693 33.23335266 4.29197693 33.24731445 6.67358398 C33.26161247 8.01023354 33.26161247 8.01023354 33.27619934 9.37388611 C33.27528793 10.33847244 33.27437653 11.30305878 33.2734375 12.296875 C33.27772263 13.28575211 33.28200775 14.27462921 33.28642273 15.29347229 C33.29217262 17.38745355 33.29266146 19.48145478 33.28833008 21.57543945 C33.28517241 24.78436285 33.30861343 27.99236272 33.33398438 31.20117188 C33.33625747 33.23307175 33.33696082 35.26497411 33.3359375 37.296875 C33.34514725 38.2594371 33.35435699 39.22199921 33.36384583 40.21372986 C33.35761703 41.10798172 33.35138824 42.00223358 33.3449707 42.92358398 C33.34560013 43.71030991 33.34622955 44.49703583 33.34687805 45.30760193 C32.86915606 47.93182966 32.12405767 48.81361755 29.97265625 50.36328125 C26.31991743 50.59894182 23.26635378 50.66492057 19.7109375 49.8359375 C15.47807394 49.10530057 11.21799071 49.43053173 6.94335938 49.66601562 C1.72790349 49.79949175 -1.04642362 48.68361202 -5.02734375 45.36328125 C-11.26590965 38.65107152 -10.21812103 27.6736089 -10.27734375 19.05078125 C-10.28660889 18.20322266 -10.29587402 17.35566406 -10.30541992 16.48242188 C-10.2622251 7.87056051 -10.20828027 0.24805167 0 0 Z " fill="#FBFBFB" transform="translate(410.02734375,82.63671875)"/>
<path d="M0 0 C5.67079931 5.5253942 9.00649358 9.86446771 9.7734375 17.890625 C9.87332641 27.44000495 8.63756372 34.11775246 3.6875 42.25 C-1.54927791 47.19584581 -6.28689707 48.66541162 -13.5 49 C-20.32641803 48.76611844 -24.8185808 47.3701861 -29.5625 42.375 C-35.43967969 34.93149648 -35.63645703 26.51869022 -34.5625 17.375 C-32.62302325 9.84462937 -28.06832447 3.6391783 -21.5625 -0.5625 C-14.87330493 -2.95684275 -6.40455277 -2.92137495 0 0 Z M-14.125 11.375 C-18.11100187 14.64556564 -20.14332917 17.8380403 -21.5 22.8125 C-21.57625935 27.1592832 -20.72993262 29.6181168 -18.5625 33.375 C-16.45435275 35.67385344 -16.45435275 35.67385344 -13.5625 36.375 C-9.31793187 35.27726686 -7.20435035 34.26530854 -4.625 30.6875 C-2.90795631 25.33436378 -2.84313752 20.74114772 -4.75 15.5 C-6.30621806 12.30010922 -6.30621806 12.30010922 -8.9375 10.75 C-11.60464099 10.14950054 -11.60464099 10.14950054 -14.125 11.375 Z " fill="#FCFCFC" transform="translate(386.5625,84.625)"/>
<path d="M0 0 C0.680625 -0.03996094 1.36125 -0.07992187 2.0625 -0.12109375 C4 0.4375 4 0.4375 5.5978241 2.59963989 C7.18626811 5.81448754 7.37448692 7.83410151 7.37231445 11.40185547 C7.37854324 12.58012909 7.38477203 13.75840271 7.39118958 14.97238159 C7.38197983 16.23704254 7.37277008 17.50170349 7.36328125 18.8046875 C7.36377975 20.11277374 7.36427826 21.42085999 7.36479187 22.76858521 C7.36470233 25.53415506 7.35431387 28.29943231 7.33618164 31.06494141 C7.31353951 34.59427148 7.31294428 38.12317282 7.31969929 41.65255547 C7.32386317 45.03664747 7.31185087 48.42061017 7.30078125 51.8046875 C7.30169266 53.06529999 7.30260406 54.32591248 7.30354309 55.62472534 C7.18584371 70.25165629 7.18584371 70.25165629 4 73.4375 C2.00390625 73.640625 2.00390625 73.640625 -0.4375 73.6875 C-1.24058594 73.71328125 -2.04367187 73.7390625 -2.87109375 73.765625 C-3.57363281 73.65734375 -4.27617187 73.5490625 -5 73.4375 C-7.40461393 69.83057911 -7.25812019 68.17701338 -7.2746582 63.88647461 C-7.2823246 62.89577217 -7.2823246 62.89577217 -7.29014587 61.88505554 C-7.30403985 59.70322599 -7.30308576 57.52171226 -7.30078125 55.33984375 C-7.30466742 53.82434471 -7.30900192 52.30884675 -7.31376648 50.79335022 C-7.3212276 47.61830105 -7.32093758 44.44336309 -7.31567383 41.26831055 C-7.30986979 37.19357211 -7.3268328 33.11928683 -7.3500185 29.04462337 C-7.36472521 25.91599351 -7.36563192 22.78747368 -7.36250877 19.65881538 C-7.36302322 18.15606346 -7.36828406 16.65330558 -7.37832069 15.15058708 C-7.39061339 13.05313179 -7.38393866 10.95657107 -7.37231445 8.85913086 C-7.37294388 7.664608 -7.3735733 6.47008514 -7.3742218 5.23936462 C-7.25072861 4.3147493 -7.12723541 3.39013397 -7 2.4375 C-4.08758312 0.49588875 -3.29379699 0.10605028 0 0 Z " fill="#FBFBFB" transform="translate(512,58.5625)"/>
<path d="M0 0 C0.680625 -0.03996094 1.36125 -0.07992187 2.0625 -0.12109375 C4 0.4375 4 0.4375 5.5978241 2.59963989 C7.18626811 5.81448754 7.37448692 7.83410151 7.37231445 11.40185547 C7.37854324 12.58012909 7.38477203 13.75840271 7.39118958 14.97238159 C7.38197983 16.23704254 7.37277008 17.50170349 7.36328125 18.8046875 C7.36377975 20.11277374 7.36427826 21.42085999 7.36479187 22.76858521 C7.36470233 25.53415506 7.35431387 28.29943231 7.33618164 31.06494141 C7.31353951 34.59427148 7.31294428 38.12317282 7.31969929 41.65255547 C7.32386317 45.03664747 7.31185087 48.42061017 7.30078125 51.8046875 C7.30169266 53.06529999 7.30260406 54.32591248 7.30354309 55.62472534 C7.18584371 70.25165629 7.18584371 70.25165629 4 73.4375 C2.00390625 73.640625 2.00390625 73.640625 -0.4375 73.6875 C-1.24058594 73.71328125 -2.04367187 73.7390625 -2.87109375 73.765625 C-3.57363281 73.65734375 -4.27617187 73.5490625 -5 73.4375 C-7.40461393 69.83057911 -7.25812019 68.17701338 -7.2746582 63.88647461 C-7.2823246 62.89577217 -7.2823246 62.89577217 -7.29014587 61.88505554 C-7.30403985 59.70322599 -7.30308576 57.52171226 -7.30078125 55.33984375 C-7.30466742 53.82434471 -7.30900192 52.30884675 -7.31376648 50.79335022 C-7.3212276 47.61830105 -7.32093758 44.44336309 -7.31567383 41.26831055 C-7.30986979 37.19357211 -7.3268328 33.11928683 -7.3500185 29.04462337 C-7.36472521 25.91599351 -7.36563192 22.78747368 -7.36250877 19.65881538 C-7.36302322 18.15606346 -7.36828406 16.65330558 -7.37832069 15.15058708 C-7.39061339 13.05313179 -7.38393866 10.95657107 -7.37231445 8.85913086 C-7.37294388 7.664608 -7.3735733 6.47008514 -7.3742218 5.23936462 C-7.25072861 4.3147493 -7.12723541 3.39013397 -7 2.4375 C-4.08758312 0.49588875 -3.29379699 0.10605028 0 0 Z " fill="#FBFBFB" transform="translate(338,58.5625)"/>
<path d="M0 0 C0.66 0 1.32 0 2 0 C0.211762 7.74903132 -5.62201613 14.64576024 -11.73828125 19.59375 C-17.09078805 22.9217335 -23.07043876 24.95091778 -29 27 C-29.95777344 27.34417969 -30.91554687 27.68835938 -31.90234375 28.04296875 C-44.40735201 31.86444186 -63.87802744 32.50657048 -76 27 C-77.36328125 24.38671875 -77.36328125 24.38671875 -78 22 C-79.3921875 22.3403125 -79.3921875 22.3403125 -80.8125 22.6875 C-84 23 -84 23 -85.875 21.8125 C-87 20 -87 20 -87 16 C-85.68 15.67 -84.36 15.34 -83 15 C-83.33 13.35 -83.66 11.7 -84 10 C-80.9164937 10.67738353 -78.20055451 11.73502282 -75.3125 13 C-71.09881221 14.72917262 -67.3455837 15.54090102 -62.8125 15.82421875 C-61 16 -61 16 -59 17 C-57.29636178 17.22622081 -55.58671299 17.40888473 -53.875 17.5625 C-52.96492188 17.64628906 -52.05484375 17.73007813 -51.1171875 17.81640625 C-50.41851562 17.87699219 -49.71984375 17.93757813 -49 18 C-48.67 17.34 -48.34 16.68 -48 16 C-46.16888672 16.05220703 -46.16888672 16.05220703 -44.30078125 16.10546875 C-31.28683569 16.36659599 -17.8154798 16.30662581 -7 8 C-5.00322561 5.93807175 -3.177769 3.83492441 -1.41015625 1.57421875 C-0.94480469 1.05472656 -0.47945313 0.53523438 0 0 Z " fill="#BE2781" transform="translate(204,105)"/>
<path d="M0 0 C0 3 0 3 -1.39453125 4.734375 C-3.55086626 7.77737818 -3.97877821 10.60514506 -4.6875 14.25 C-4.93886719 15.51328125 -5.19023437 16.7765625 -5.44921875 18.078125 C-5.63097656 19.04234375 -5.81273437 20.0065625 -6 21 C-7.98 20.67 -9.96 20.34 -12 20 C-10.13433512 23.62793998 -10.13433512 23.62793998 -7 26 C-7 27.32 -7 28.64 -7 30 C-5.515 30.495 -5.515 30.495 -4 31 C-4 31.66 -4 32.32 -4 33 C-3.34 33 -2.68 33 -2 33 C-1.98582031 32.38253906 -1.97164063 31.76507813 -1.95703125 31.12890625 C-1.37705268 20.83036783 2.99740514 14.610603 10.03515625 7.3359375 C12 6 12 6 14.24609375 6.2890625 C14.82488281 6.52367187 15.40367187 6.75828125 16 7 C15.23816406 7.47566406 15.23816406 7.47566406 14.4609375 7.9609375 C7.2409589 12.85537992 2.72064339 19.15939564 0.625 27.6875 C-0.05322119 31.4991031 -0.16437355 35.13722147 0 39 C-3.96621218 37.67792927 -5.05102699 35.17679925 -7.1875 31.8125 C-13.44530162 22.42324545 -20.07210937 17.98030846 -31.11328125 15.53125 C-42.53287357 13.69409438 -53.39061301 16.88929256 -63 23 C-66.79870197 25.76875087 -70.44374434 28.71376321 -74.06640625 31.70703125 C-77 34 -77 34 -80 35 C-78.09350077 25.27471181 -67.67891535 16.19981239 -59.8984375 10.87890625 C-52.15239984 6.25627087 -45.8095915 3.61654252 -36.6875 3.6875 C-35.933479 3.69313965 -35.17945801 3.6987793 -34.40258789 3.70458984 C-23.2290466 3.94820078 -15.75085997 8.01138359 -8 16 C-7.76216797 15.02160156 -7.76216797 15.02160156 -7.51953125 14.0234375 C-5.94851015 8.13861813 -4.25576977 4.37079057 0 0 Z " fill="#862C8B" transform="translate(138,43)"/>
<path d="M0 0 C3 0 3 0 6 2 C6.34057617 4.15478516 6.34057617 4.15478516 6.29296875 6.7890625 C6.28330078 7.73007813 6.27363281 8.67109375 6.26367188 9.640625 C6.23853516 10.62546875 6.21339844 11.6103125 6.1875 12.625 C6.17396484 13.61757812 6.16042969 14.61015625 6.14648438 15.6328125 C6.11105743 18.08908072 6.06166196 20.54427285 6 23 C7.57201172 22.26910156 7.57201172 22.26910156 9.17578125 21.5234375 C17.66548634 17.90235756 27.56626011 19.92549282 36 23 C36.495 23.99 36.495 23.99 37 25 C33.04 25 29.08 25 25 25 C24.505 27.475 24.505 27.475 24 30 C24.495 29.505 24.495 29.505 25 29 C26.9375 29.0625 26.9375 29.0625 29 30 C30.25 33.0625 30.25 33.0625 31 36 C30.31421875 35.71511719 29.6284375 35.43023437 28.921875 35.13671875 C16.20698074 30.19014892 7.55153923 28.80625963 -5 34 C-6.485 34.495 -6.485 34.495 -8 35 C-7.30058404 31.85262818 -6.23921302 28.97411124 -5 26 C-4.34 26 -3.68 26 -3 26 C-2.98018066 25.31897217 -2.96036133 24.63794434 -2.93994141 23.9362793 C-2.84473017 20.85296083 -2.73503534 17.77032351 -2.625 14.6875 C-2.5940625 13.61564453 -2.563125 12.54378906 -2.53125 11.43945312 C-2.47324219 9.89741211 -2.47324219 9.89741211 -2.4140625 8.32421875 C-2.36693115 6.9024231 -2.36693115 6.9024231 -2.31884766 5.4519043 C-2 3 -2 3 0 0 Z " fill="#C9287F" transform="translate(201,62)"/>
<path d="M0 0 C1.11411255 -0.00845947 1.11411255 -0.00845947 2.25073242 -0.01708984 C6.0203403 0.0340323 7.79265386 0.17426924 11 2.3125 C10.38479492 2.32708252 9.76958984 2.34166504 9.13574219 2.35668945 C6.33987146 2.43130577 3.54517713 2.5279198 0.75 2.625 C-0.21808594 2.64755859 -1.18617187 2.67011719 -2.18359375 2.69335938 C-3.11816406 2.72880859 -4.05273438 2.76425781 -5.015625 2.80078125 C-5.87446289 2.82696533 -6.73330078 2.85314941 -7.61816406 2.88012695 C-10.44495214 3.39327186 -11.7651182 4.56422708 -14 6.3125 C-17.25 6.5 -17.25 6.5 -20 6.3125 C-18.62514468 7.85416642 -18.62514468 7.85416642 -17 9.3125 C-16.34 9.3125 -15.68 9.3125 -15 9.3125 C-14.505 12.2825 -14.505 12.2825 -14 15.3125 C-12.90042969 15.28929688 -11.80085938 15.26609375 -10.66796875 15.2421875 C6.9809614 14.98240932 6.9809614 14.98240932 14 17.3125 C14.495 18.3025 14.495 18.3025 15 19.3125 C13.71996094 19.15136719 12.43992188 18.99023438 11.12109375 18.82421875 C-8.3193742 16.67599571 -27.00547486 18.03775919 -42.85546875 30.5703125 C-43.56316406 31.14523438 -44.27085938 31.72015625 -45 32.3125 C-45.66 32.3125 -46.32 32.3125 -47 32.3125 C-46.56231536 23.7776495 -40.25880549 16.83865782 -34.32421875 11.1640625 C-24.36084214 3.22685156 -12.49198454 0.09205589 0 0 Z " fill="#702C87" transform="translate(54,84.6875)"/>
<path d="M0 0 C0 3 0 3 -1.39453125 4.734375 C-3.55086626 7.77737818 -3.97877821 10.60514506 -4.6875 14.25 C-5.06455078 16.14492188 -5.06455078 16.14492188 -5.44921875 18.078125 C-5.63097656 19.04234375 -5.81273437 20.0065625 -6 21 C-7.98 20.67 -9.96 20.34 -12 20 C-10.13433512 23.62793998 -10.13433512 23.62793998 -7 26 C-7 27.32 -7 28.64 -7 30 C-6.01 30.33 -5.02 30.66 -4 31 C-4 31.66 -4 32.32 -4 33 C-3.34 33 -2.68 33 -2 33 C-1.98582031 32.38253906 -1.97164062 31.76507813 -1.95703125 31.12890625 C-1.37705268 20.83036783 2.99740514 14.610603 10.03515625 7.3359375 C12 6 12 6 14.24609375 6.2890625 C14.82488281 6.52367187 15.40367187 6.75828125 16 7 C15.23816406 7.47566406 15.23816406 7.47566406 14.4609375 7.9609375 C7.2409589 12.85537992 2.72064339 19.15939564 0.625 27.6875 C-0.05322119 31.4991031 -0.16437355 35.13722147 0 39 C-3.96621218 37.67792927 -5.05102699 35.17679925 -7.1875 31.8125 C-13.39827029 22.49381163 -20.08569355 17.79906912 -31.1484375 15.56640625 C-37.47775996 14.6409999 -43.6723113 15.30406131 -50 16 C-50 15.34 -50 14.68 -50 14 C-42.93774851 12.40274312 -37.12468204 11.90936648 -30 13 C-27.98032627 13.19960365 -25.95940274 13.38690691 -23.9375 13.5625 C-22.52791016 13.68818359 -22.52791016 13.68818359 -21.08984375 13.81640625 C-20.05537109 13.90728516 -20.05537109 13.90728516 -19 14 C-19 14.66 -19 15.32 -19 16 C-16.63158688 14.42105792 -14.93254772 13.0245738 -13 11 C-10.525 13.475 -10.525 13.475 -8 16 C-7.76216797 15.02160156 -7.76216797 15.02160156 -7.51953125 14.0234375 C-5.94851015 8.13861813 -4.25576977 4.37079057 0 0 Z " fill="#822C77" transform="translate(138,43)"/>
<path d="M0 0 C1.12233032 0.00193359 1.12233032 0.00193359 2.26733398 0.00390625 C7.91709531 0.10206694 12.47201897 1.03665373 17.6875 3.3125 C13.9375 4.4375 13.9375 4.4375 11.6875 3.3125 C8.80839412 3.07975791 5.94603505 2.89277243 3.0625 2.75 C2.26070312 2.70681641 1.45890625 2.66363281 0.6328125 2.61914062 C-1.3487511 2.51298543 -3.33060271 2.41223145 -5.3125 2.3125 C-5.3125 3.3025 -5.3125 4.2925 -5.3125 5.3125 C-5.993125 5.085625 -6.67375 4.85875 -7.375 4.625 C-11.40821429 4.19593465 -13.70292826 5.53937704 -17.3125 7.3125 C-18.92125 8.0240625 -18.92125 8.0240625 -20.5625 8.75 C-23.3650649 10.34236642 -24.51559201 11.70698341 -26.3125 14.3125 C-26.9725 14.3125 -27.6325 14.3125 -28.3125 14.3125 C-28.3125 14.9725 -28.3125 15.6325 -28.3125 16.3125 C-27.590625 16.02375 -26.86875 15.735 -26.125 15.4375 C-25.196875 15.06625 -24.26875 14.695 -23.3125 14.3125 C-22.466875 13.920625 -21.62125 13.52875 -20.75 13.125 C-18.02108814 12.21536271 -16.99306154 12.51343197 -14.3125 13.3125 C-15.01632813 13.61800781 -15.72015625 13.92351563 -16.4453125 14.23828125 C-23.67104448 17.58702127 -29.55931685 21.55547545 -35.67822266 26.61645508 C-38.2241966 28.71690186 -40.14898347 30.25799449 -43.3125 31.3125 C-41.40600077 21.58721181 -30.99141535 12.51231239 -23.2109375 7.19140625 C-15.46204351 2.56706629 -9.12380066 -0.06494531 0 0 Z " fill="#642E82" transform="translate(101.3125,46.6875)"/>
<path d="M0 0 C0.33 0.66 0.66 1.32 1 2 C1.66 2 2.32 2 3 2 C3.33 1.34 3.66 0.68 4 0 C4 2.83967231 3.59732819 5.23735711 3 8 C3.66 8 4.32 8 5 8 C5.33 7.01 5.66 6.02 6 5 C6.66 5.33 7.32 5.66 8 6 C8 11.28 8 16.56 8 22 C5.69 23.32 3.38 24.64 1 26 C-2.17175425 22.56464151 -2.45766505 19.84669909 -2.6875 15.25 C-2.75324219 14.07953125 -2.81898438 12.9090625 -2.88671875 11.703125 C-2.92410156 10.81109375 -2.96148437 9.9190625 -3 9 C-2.34 8.67 -1.68 8.34 -1 8 C-1.33 5.69 -1.66 3.38 -2 1 C-1.34 0.67 -0.68 0.34 0 0 Z " fill="#E8247D" transform="translate(247,106)"/>
<path d="M0 0 C0 0.66 0 1.32 0 2 C-0.928125 2.3403125 -0.928125 2.3403125 -1.875 2.6875 C-4.64557394 4.39873685 -4.9657324 5.97107345 -6 9 C-8 12 -8 12 -10.625 12.6875 C-11.40875 12.790625 -12.1925 12.89375 -13 13 C-12.35330586 11.65686601 -11.68096422 10.32608822 -11 9 C-10.38125 7.7625 -10.38125 7.7625 -9.75 6.5 C-7.44261637 3.20373767 -4.23647897 0 0 0 Z M-14 13 C-12.93453047 16.1964086 -12.92572162 18.65747276 -13 22 C-11.68 21.67 -10.36 21.34 -9 21 C-8.67 21.99 -8.34 22.98 -8 24 C-8.6496875 25.2684375 -8.6496875 25.2684375 -9.3125 26.5625 C-11.4571528 30.93123719 -12.19864294 35.22956857 -13 40 C-15 40 -15 40 -16.625 38.75 C-18 37 -18 37 -18 33 C-18.639375 32.7525 -19.27875 32.505 -19.9375 32.25 C-22 31 -22 31 -22.75 28.875 C-22.8325 28.25625 -22.915 27.6375 -23 27 C-20.03 27.495 -20.03 27.495 -17 28 C-16.95101562 27.33613281 -16.90203125 26.67226563 -16.8515625 25.98828125 C-16.10896309 17.21792619 -16.10896309 17.21792619 -14 13 Z " fill="#982B89" transform="translate(149,36)"/>
<path d="M0 0 C6.07221371 5.57917072 8.95887887 12.49549289 9.3515625 20.71875 C9.55010076 32.89979848 9.55010076 32.89979848 8 36 C10.97 35.505 10.97 35.505 14 35 C13.67 35.66 13.34 36.32 13 37 C10.03 37.495 10.03 37.495 7 38 C6.67 31.4 6.34 24.8 6 18 C4.68 17.34 3.36 16.68 2 16 C-0.47887144 18.47887144 -0.26913738 19.29943378 -0.34375 22.71875 C-0.37339844 23.65074219 -0.40304688 24.58273438 -0.43359375 25.54296875 C-0.45550781 26.51878906 -0.47742188 27.49460937 -0.5 28.5 C-0.54328153 30.42730111 -0.59495445 32.35443768 -0.65625 34.28125 C-0.67494141 35.13783203 -0.69363281 35.99441406 -0.71289062 36.87695312 C-1 39 -1 39 -3 41 C-2.96519531 39.87722656 -2.93039063 38.75445312 -2.89453125 37.59765625 C-2.71869333 29.43804781 -2.78055395 22.62049729 -6 15 C-6.37229359 13.34160126 -6.7293569 11.67798725 -7 10 C-3.37673261 8.7922442 -2.35853631 9.45688872 1 11 C1 11.66 1 12.32 1 13 C1.66 13 2.32 13 3 13 C2.49947804 10.16370891 1.85031582 7.55094746 0.9375 4.8125 C0 2 0 2 0 0 Z " fill="#B12F74" transform="translate(200,47)"/>
<path d="M0 0 C0 0.66 0 1.32 0 2 C-1.65 2 -3.3 2 -5 2 C-5.33 3.65 -5.66 5.3 -6 7 C-6.99 7 -7.98 7 -9 7 C-9 7.66 -9 8.32 -9 9 C-10.03125 9.103125 -11.0625 9.20625 -12.125 9.3125 C-16.00904439 10.00160465 -18.53089193 11.19317288 -22 13 C-27.24163775 14.84427995 -31.52099641 15.19224574 -37 15 C-32.86621405 12.2441427 -30.94796454 11.89243555 -26 12 C-26.33 10.35 -26.66 8.7 -27 7 C-22.55131586 4.03421057 -17.91053449 4.19308191 -12.6640625 3.66015625 C-7.72038751 2.76945148 -5.06097531 0 0 0 Z " fill="#D6277D" transform="translate(195,118)"/>
<path d="M0 0 C0.66 0 1.32 0 2 0 C0.04816821 8.45793776 -6.79007095 16.2942188 -14 21 C-16.20703125 21.65625 -16.20703125 21.65625 -18 22 C-18 21.34 -18 20.68 -18 20 C-17.01 19.67 -16.02 19.34 -15 19 C-15.495 18.01 -15.495 18.01 -16 17 C-15.34 17 -14.68 17 -14 17 C-14 16.34 -14 15.68 -14 15 C-12.35 15 -10.7 15 -9 15 C-9 14.34 -9 13.68 -9 13 C-10.31371987 13.47581198 -11.62594546 13.95575149 -12.9375 14.4375 C-13.66839844 14.70433594 -14.39929688 14.97117187 -15.15234375 15.24609375 C-16.98305678 15.85386948 -16.98305678 15.85386948 -18 17 C-24.29113344 18.24775601 -30.54501814 18.11408427 -36.9375 18.0625 C-38.53561523 18.05573242 -38.53561523 18.05573242 -40.16601562 18.04882812 C-42.77740291 18.03711787 -45.38867124 18.02071724 -48 18 C-48 17.67 -48 17.34 -48 17 C-46.77925781 16.96261719 -45.55851563 16.92523438 -44.30078125 16.88671875 C-22.89961308 16.34749117 -22.89961308 16.34749117 -4.96484375 5.8984375 C-3.74785069 4.48402667 -2.55947417 3.04415018 -1.41015625 1.57421875 C-0.94480469 1.05472656 -0.47945312 0.53523438 0 0 Z " fill="#BA3673" transform="translate(204,105)"/>
<path d="M0 0 C2.1875 -0.3125 2.1875 -0.3125 5 0 C10.55462773 4.39203123 11.81294605 9.27336092 13 16 C12.01 16.33 11.02 16.66 10 17 C9.34 16.34 8.68 15.68 8 15 C5.33871316 13.45473667 4.15084005 13 1 13 C0.71125 12.195625 0.4225 11.39125 0.125 10.5625 C-0.73262568 7.8673532 -0.73262568 7.8673532 -3 7 C-2.34 6.34 -1.68 5.68 -1 5 C-0.35232207 2.42938689 -0.35232207 2.42938689 0 0 Z " fill="#C32882" transform="translate(191,44)"/>
<path d="M0 0 C-3.91064346 2.77529536 -7.47387322 3.66681571 -12.109375 4.47265625 C-12.73328125 4.64667969 -13.3571875 4.82070312 -14 5 C-14.33 5.66 -14.66 6.32 -15 7 C-10.05 7 -5.1 7 0 7 C-5.65502449 10.77001633 -14.46605298 9.67181805 -21 8.4296875 C-25.58558833 7.10154454 -29.81333856 5.31368132 -34 3 C-34 2.34 -34 1.68 -34 1 C-33.39414063 1.0721875 -32.78828125 1.144375 -32.1640625 1.21875 C-22.27098829 2.31459822 -14.10941918 2.35389087 -4.46875 -0.44140625 C-2 -1 -2 -1 0 0 Z " fill="#AF3072" transform="translate(227,152)"/>
<path d="M0 0 C0.66 0 1.32 0 2 0 C3.69838251 3.39676502 2.78975878 7.28243873 2.5625 11 C1.9131889 23.14587727 1.91282968 35.27771739 1.9375 47.4375 C1.9393631 48.40147705 1.9412262 49.3654541 1.94314575 50.35864258 C1.9553561 55.905798 1.97478057 61.45288917 2 67 C1.01 67.495 1.01 67.495 0 68 C-0.84476979 59.00964817 -1.15855684 50.07525911 -1.13037109 41.04931641 C-1.12493241 38.97421207 -1.13039668 36.89931724 -1.13671875 34.82421875 C-1.13605909 33.4869787 -1.13478025 32.14973877 -1.1328125 30.8125 C-1.13168457 29.62269531 -1.13055664 28.43289062 -1.12939453 27.20703125 C-1.01340908 24.33234283 -0.59026786 21.80369995 0 19 C0.07595256 17.45334453 0.10819015 15.90395219 0.09765625 14.35546875 C0.09443359 13.51435547 0.09121094 12.67324219 0.08789062 11.80664062 C0.07951172 10.94232422 0.07113281 10.07800781 0.0625 9.1875 C0.05798828 8.30384766 0.05347656 7.42019531 0.04882812 6.50976562 C0.03709866 4.33981441 0.01916495 2.16989828 0 0 Z " fill="#EEEEEE" transform="translate(494,61)"/>
<path d="M0 0 C1 3 1 3 1 4 C3.64 4.66 6.28 5.32 9 6 C5.91239029 8.37957628 2.7212336 10.52519756 -0.5625 12.625 C-1.51253906 13.23601562 -2.46257813 13.84703125 -3.44140625 14.4765625 C-6 16 -6 16 -9 17 C-8.65310247 10.2354981 -4.68483134 4.68483134 0 0 Z " fill="#602D7E" transform="translate(16,100)"/>
<path d="M0 0 C0.57878906 0.23460937 1.15757812 0.46921875 1.75390625 0.7109375 C1.24601562 1.02804688 0.738125 1.34515625 0.21484375 1.671875 C-7.00513485 6.56631742 -11.52545036 12.87033314 -13.62109375 21.3984375 C-14.29931494 25.2100406 -14.4104673 28.84815897 -14.24609375 32.7109375 C-18.26361609 31.37176339 -19.53056852 28.72868901 -21.74609375 25.3359375 C-25.08181269 20.1866066 -25.08181269 20.1866066 -29.24609375 15.7109375 C-28.58609375 15.3809375 -27.92609375 15.0509375 -27.24609375 14.7109375 C-27.24609375 15.3709375 -27.24609375 16.0309375 -27.24609375 16.7109375 C-26.62734375 17.0203125 -26.00859375 17.3296875 -25.37109375 17.6484375 C-23.99609375 18.3359375 -22.62109375 19.0234375 -21.24609375 19.7109375 C-21.24609375 21.0309375 -21.24609375 22.3509375 -21.24609375 23.7109375 C-20.25609375 24.0409375 -19.26609375 24.3709375 -18.24609375 24.7109375 C-18.24609375 25.3709375 -18.24609375 26.0309375 -18.24609375 26.7109375 C-17.58609375 26.7109375 -16.92609375 26.7109375 -16.24609375 26.7109375 C-16.22482422 25.78474609 -16.22482422 25.78474609 -16.203125 24.83984375 C-15.62314643 14.54130533 -11.24868861 8.3215405 -4.2109375 1.046875 C-2.24609375 -0.2890625 -2.24609375 -0.2890625 0 0 Z " fill="#6C2962" transform="translate(152.24609375,49.2890625)"/>
<path d="M0 0 C0.97608217 2.92824652 1.08226668 4.95613276 1 8 C0.48050781 8.23074219 -0.03898437 8.46148437 -0.57421875 8.69921875 C-5.26838749 10.89445847 -8.39802594 13.20332464 -12 17 C-13.63377642 18.05287814 -15.29181597 19.0727001 -17 20 C-13.37 20 -9.74 20 -6 20 C-8 22 -8 22 -9.97119141 22.22705078 C-10.75671387 22.21657715 -11.54223633 22.20610352 -12.3515625 22.1953125 C-13.20234375 22.18886719 -14.053125 22.18242187 -14.9296875 22.17578125 C-16.26386719 22.15064453 -16.26386719 22.15064453 -17.625 22.125 C-18.97078125 22.11146484 -18.97078125 22.11146484 -20.34375 22.09765625 C-22.56276586 22.0740497 -24.78125077 22.0411231 -27 22 C-26.505 20.515 -26.505 20.515 -26 19 C-24.07421875 18.33984375 -24.07421875 18.33984375 -21.6875 17.9375 C-12.11258986 16.27573874 -6.9242025 9.21414982 -1 2 C-0.67 1.34 -0.34 0.68 0 0 Z " fill="#C8297B" transform="translate(239,137)"/>
<path d="M0 0 C-0.66 0 -1.32 0 -2 0 C-2 0.66 -2 1.32 -2 2 C-2.66 2 -3.32 2 -4 2 C-4 2.99 -4 3.98 -4 5 C-3.34 5.33 -2.68 5.66 -2 6 C-3.65 6 -5.3 6 -7 6 C-7 6.66 -7 7.32 -7 8 C-7.93972656 8.18175781 -7.93972656 8.18175781 -8.8984375 8.3671875 C-9.71570313 8.53476562 -10.53296875 8.70234375 -11.375 8.875 C-12.59316406 9.11863281 -12.59316406 9.11863281 -13.8359375 9.3671875 C-16.18673923 9.86658932 -16.18673923 9.86658932 -18 12 C-19.32 12 -20.64 12 -22 12 C-22 10 -22 10 -20.53125 8.37890625 C-15.85995843 4.2016936 -11.98294666 1.85677655 -6 0 C-3.50907189 -1.24546405 -2.58919267 -0.7767578 0 0 Z " fill="#772D8C" transform="translate(95,51)"/>
<path d="M0 0 C1.134375 0.020625 2.26875 0.04125 3.4375 0.0625 C0.22351728 2.20515515 -2.74034342 3.32829078 -6.375 4.625 C-7.57769531 5.05941406 -8.78039062 5.49382812 -10.01953125 5.94140625 C-16.75894827 8.07394504 -23.05631913 8.21681456 -30.0625 8.1875 C-30.98675781 8.19136719 -31.91101563 8.19523438 -32.86328125 8.19921875 C-37.5430261 8.19252384 -41.96028866 8.02896438 -46.5625 7.0625 C-46.5625 6.7325 -46.5625 6.4025 -46.5625 6.0625 C-45.2935791 6.04848145 -45.2935791 6.04848145 -43.99902344 6.03417969 C-40.80030912 5.98964394 -37.60248288 5.92780301 -34.40429688 5.85498047 C-33.03137006 5.8270989 -31.65829251 5.80572473 -30.28515625 5.79150391 C-19.56439368 5.67395169 -9.62670256 0.16888952 0 0 Z " fill="#A2356E" transform="translate(182.5625,126.9375)"/>
<path d="M0 0 C0.495 0.99 0.495 0.99 1 2 C-0.28003906 1.83886719 -1.56007812 1.67773438 -2.87890625 1.51171875 C-7.90770181 0.95602356 -12.88100739 0.80812797 -17.9375 0.8125 C-19.2524646 0.81262085 -19.2524646 0.81262085 -20.59399414 0.81274414 C-26.61124002 0.86591486 -32.17907463 1.42085787 -38 3 C-39.66482542 3.3424109 -41.33113813 3.6778371 -43 4 C-40.03029342 -0.04959988 -36.9694511 -0.90247626 -32.23828125 -1.6875 C-21.92896965 -2.68236722 -9.92277717 -3.35592881 0 0 Z " fill="#5C2863" transform="translate(68,102)"/>
<path d="M0 0 C0.66 0 1.32 0 2 0 C3.35439668 2.70879335 3.06501451 5.00933268 3 8 C3.66 8 4.32 8 5 8 C5 11.63 5 15.26 5 19 C5.66 19.33 6.32 19.66 7 20 C5.66666667 22.66666667 4.33333333 25.33333333 3 28 C2.01 28 1.02 28 0 28 C0.144375 27.29875 0.28875 26.5975 0.4375 25.875 C2.24672791 16.62783512 2.37589855 9.16418011 0 0 Z " fill="#C93072" transform="translate(240,109)"/>
<path d="M0 0 C5.03601292 0.58107841 9.4470253 1.65965189 14.25 3.375 C16.05210938 4.00535156 16.05210938 4.00535156 17.890625 4.6484375 C20.66050074 5.85242871 22.13542899 6.68955332 24 9 C22.94039062 8.91621094 21.88078125 8.83242187 20.7890625 8.74609375 C19.40106375 8.64293168 18.01304165 8.54008337 16.625 8.4375 C15.92632812 8.38142578 15.22765625 8.32535156 14.5078125 8.26757812 C10.63471135 7.88500096 10.63471135 7.88500096 7 9 C6.896875 8.38125 6.79375 7.7625 6.6875 7.125 C6.12474627 4.63473516 6.12474627 4.63473516 3 3 C3 2.34 3 1.68 3 1 C2.01 0.67 1.02 0.34 0 0 Z " fill="#7C2C75" transform="translate(67,87)"/>
<path d="M0 0 C1.12233032 0.00193359 1.12233032 0.00193359 2.26733398 0.00390625 C7.91709531 0.10206694 12.47201897 1.03665373 17.6875 3.3125 C13.9375 4.4375 13.9375 4.4375 11.6875 3.3125 C8.80839412 3.07975791 5.94603505 2.89277243 3.0625 2.75 C2.26070312 2.70681641 1.45890625 2.66363281 0.6328125 2.61914062 C-1.3487511 2.51298543 -3.33060271 2.41223145 -5.3125 2.3125 C-5.3125 3.3025 -5.3125 4.2925 -5.3125 5.3125 C-6.055 5.10625 -6.7975 4.9 -7.5625 4.6875 C-10.63580841 4.26841249 -11.74036866 4.69300989 -14.3125 6.3125 C-14.3125 4.9925 -14.3125 3.6725 -14.3125 2.3125 C-9.50733141 0.41313415 -5.11394616 -0.03640224 0 0 Z " fill="#682A6D" transform="translate(101.3125,46.6875)"/>
<path d="M0 0 C-5.76479816 3.68306549 -10.49179134 4.19832091 -17.25 4.5625 C-18.36761719 4.62727539 -18.36761719 4.62727539 -19.5078125 4.69335938 C-21.338349 4.79896725 -23.16915176 4.89994201 -25 5 C-24.34 5.66 -23.68 6.32 -23 7 C-27.12751449 6.39301257 -30.3321148 4.96189209 -34 3 C-34 2.34 -34 1.68 -34 1 C-33.39414063 1.0721875 -32.78828125 1.144375 -32.1640625 1.21875 C-22.27098829 2.31459822 -14.10941918 2.35389087 -4.46875 -0.44140625 C-2 -1 -2 -1 0 0 Z " fill="#A1386A" transform="translate(227,152)"/>
<path d="M0 0 C0 3.70938737 -0.94259256 4.49347702 -3.1875 7.375 C-11.09814081 18.4370343 -13.26467725 28.93470803 -11.5 42.25 C-11.335 43.1575 -11.17 44.065 -11 45 C-14.9890852 41.0109148 -14.36051536 35.69471605 -14.38500977 30.39794922 C-14.1450303 18.79850945 -8.12948072 8.12948072 0 0 Z " fill="#F0F0F0" transform="translate(285,75)"/>
<path d="M0 0 C0.33 0.99 0.66 1.98 1 3 C1.99 3.66 2.98 4.32 4 5 C2.21326795 6.5058745 0.42046492 8.0045485 -1.375 9.5 C-2.37273437 10.3353125 -3.37046875 11.170625 -4.3984375 12.03125 C-7 14 -7 14 -9 14 C-8.38756115 10.62780583 -7.15616473 8.56758594 -5.0625 5.875 C-4.53785156 5.19179687 -4.01320313 4.50859375 -3.47265625 3.8046875 C-2 2 -2 2 0 0 Z " fill="#562C78" transform="translate(67,64)"/>
<path d="M0 0 C-0.68707031 0.24234375 -1.37414062 0.4846875 -2.08203125 0.734375 C-2.98308594 1.06953125 -3.88414063 1.4046875 -4.8125 1.75 C-5.70582031 2.07484375 -6.59914063 2.3996875 -7.51953125 2.734375 C-10.26972119 4.13762152 -11.28191026 5.48894577 -13 8 C-15.3125 9.125 -15.3125 9.125 -18 10 C-19.6396875 10.556875 -19.6396875 10.556875 -21.3125 11.125 C-22.6428125 11.558125 -22.6428125 11.558125 -24 12 C-19.38855535 5.08283302 -8.53158225 -2.64773242 0 0 Z " fill="#5F3176" transform="translate(41,88)"/>
<path d="M0 0 C0.66 0 1.32 0 2 0 C0.58399311 6.13602988 -3.0663375 10.26698362 -7 15 C-7.33 14.01 -7.66 13.02 -8 12 C-10.01508358 11.26676204 -10.01508358 11.26676204 -12 11 C-11.13375 10.484375 -10.2675 9.96875 -9.375 9.4375 C-6.02994415 7.24181168 -3.74658789 4.52520386 -1.296875 1.390625 C-0.86890625 0.93171875 -0.4409375 0.4728125 0 0 Z " fill="#C0386F" transform="translate(204,105)"/>
<path d="M0 0 C0.66 0.33 1.32 0.66 2 1 C1.525625 1.7425 1.05125 2.485 0.5625 3.25 C-2.91706753 9.37403886 -2.49452394 16.11857367 -2 23 C-1.26813531 25.64459081 -0.32268873 27.56625274 1 30 C1.33 30.99 1.66 31.98 2 33 C1.34 33 0.68 33 0 33 C-4.48191486 25.62652716 -6.3765777 19.02476216 -4.3984375 10.3671875 C-3.27400421 6.47142367 -2.26494561 3.39741842 0 0 Z " fill="#F0F0F0" transform="translate(452,92)"/>
<path d="M0 0 C4.54805635 -0.17835515 7.8794254 0.00214565 12 2 C12 2.66 12 3.32 12 4 C14.64 4 17.28 4 20 4 C20.66 5.32 21.32 6.64 22 8 C13.95263294 7.67810532 7.19977924 4.30664018 0 1 C0 0.67 0 0.34 0 0 Z " fill="#8D2A6B" transform="translate(106,123)"/>
<path d="M0 0 C0 0.66 0 1.32 0 2 C-1.01578125 1.84402344 -2.0315625 1.68804687 -3.078125 1.52734375 C-11.59605412 0.29656111 -19.40780779 -0.20420876 -28 1 C-28 0.34 -28 -0.32 -28 -1 C-17.78189537 -3.31101058 -10.01342694 -2.73093462 0 0 Z " fill="#5E2264" transform="translate(116,58)"/>
<path d="M0 0 C1.32 0.99 2.64 1.98 4 3 C3.67 3.33 3.34 3.66 3 4 C3.99 4.66 4.98 5.32 6 6 C-2.25 5.34 -10.5 4.68 -19 4 C-19 3.67 -19 3.34 -19 3 C-18.10796875 2.93941406 -17.2159375 2.87882812 -16.296875 2.81640625 C-14.54117188 2.69072266 -14.54117188 2.69072266 -12.75 2.5625 C-11.00976562 2.44068359 -11.00976562 2.44068359 -9.234375 2.31640625 C-5.81329766 1.98173564 -3.06734404 1.53367202 0 0 Z " fill="#842C89" transform="translate(62,96)"/>
<path d="M0 0 C0 0.66 0 1.32 0 2 C-0.928125 2.3403125 -0.928125 2.3403125 -1.875 2.6875 C-4.64557394 4.39873685 -4.9657324 5.97107345 -6 9 C-8 12 -8 12 -10.625 12.6875 C-11.40875 12.790625 -12.1925 12.89375 -13 13 C-12.35330586 11.65686601 -11.68096422 10.32608822 -11 9 C-10.38125 7.7625 -10.38125 7.7625 -9.75 6.5 C-7.44261637 3.20373767 -4.23647897 0 0 0 Z M-14 13 C-13.67 13.99 -13.34 14.98 -13 16 C-13.33 16.66 -13.66 17.32 -14 18 C-14.5625 16.0625 -14.5625 16.0625 -15 14 C-14.67 13.67 -14.34 13.34 -14 13 Z " fill="#922B7E" transform="translate(149,36)"/>
<path d="M0 0 C0.97608217 2.92824652 1.08226668 4.95613276 1 8 C-3.27113698 10.18326108 -7.50202887 12.31326082 -12 14 C-11.29875 13.319375 -10.5975 12.63875 -9.875 11.9375 C-4.28618547 6.45685811 -4.28618547 6.45685811 0 0 Z " fill="#C02F6E" transform="translate(239,137)"/>
<path d="M0 0 C4.16446295 3.42080885 6.46633604 7.89092312 8 13 C7.67 13.99 7.34 14.98 7 16 C4.27821353 13.62916021 3.11230393 11.3466216 1.8125 8 C1.46832031 7.13375 1.12414062 6.2675 0.76953125 5.375 C0 3 0 3 0 0 Z " fill="#A72F6D" transform="translate(200,47)"/>
<path d="M0 0 C3.98381075 2.16264012 6.88983545 4.71211176 10 8 C9.67 8.66 9.34 9.32 9 10 C8.34 9.34 7.68 8.68 7 8 C4.89179203 8.3185177 4.89179203 8.3185177 3 9 C2.87625 8.195625 2.7525 7.39125 2.625 6.5625 C2.315625 5.2940625 2.315625 5.2940625 2 4 C1.34 3.67 0.68 3.34 0 3 C0 2.01 0 1.02 0 0 Z " fill="#CC3172" transform="translate(239,87)"/>
<path d="M0 0 C6.96050253 0.38669459 11.9394075 2.63438409 18 6 C18 6.66 18 7.32 18 8 C13.78224268 6.64474464 9.70578678 5.09799886 5.625 3.375 C4.56539063 2.92898437 3.50578125 2.48296875 2.4140625 2.0234375 C1.61742188 1.68570313 0.82078125 1.34796875 0 1 C0 0.67 0 0.34 0 0 Z " fill="#732C6A" transform="translate(69,104)"/>
<path d="M0 0 C0.66 1.32 1.32 2.64 2 4 C2.33 3.67 2.66 3.34 3 3 C4.66617115 2.95936168 6.33388095 2.957279 8 3 C8 3.66 8 4.32 8 5 C6.72942818 5.47985967 5.45853152 5.9588593 4.1875 6.4375 C3.12595703 6.83775391 3.12595703 6.83775391 2.04296875 7.24609375 C0.37327604 7.86225186 -1.31157704 8.43719235 -3 9 C-2.30058404 5.85262818 -1.23921302 2.97411124 0 0 Z " fill="#9A3969" transform="translate(196,88)"/>
<path d="M0 0 C1.875 0.125 1.875 0.125 4 1 C5.25 4.0625 5.25 4.0625 6 7 C5.360625 6.731875 4.72125 6.46375 4.0625 6.1875 C0.08797739 4.64635858 -3.94884495 3.32390688 -8 2 C-4.90279155 1.12159004 -3.09354597 1.00564594 0 2 C0 1.34 0 0.68 0 0 Z " fill="#BA2F72" transform="translate(226,91)"/>
<path d="M0 0 C5.875 4.625 5.875 4.625 7 8 C1.46153846 7.50769231 1.46153846 7.50769231 -0.875 4.9375 C-1.431875 3.9784375 -1.431875 3.9784375 -2 3 C-1.34 2.01 -0.68 1.02 0 0 Z " fill="#812F7B" transform="translate(124,54)"/>
<path d="M0 0 C3.56951759 0.6119173 6.65633587 1.62824036 10 3 C11.32676508 3.35858516 12.65835921 3.7018576 14 4 C14 5.32 14 6.64 14 8 C9.02790438 6.23570801 4.56561939 3.6060834 0 1 C0 0.67 0 0.34 0 0 Z " fill="#822B6C" transform="translate(87,112)"/>
<path d="M0 0 C2.1875 0.3125 2.1875 0.3125 4 1 C3.48050781 1.35191406 2.96101562 1.70382813 2.42578125 2.06640625 C-2.5093484 5.56022262 -5.74098198 8.90778434 -9 14 C-9.33 13.01 -9.66 12.02 -10 11 C-8.671875 9.0625 -8.671875 9.0625 -6.75 7 C-6.12609375 6.319375 -5.5021875 5.63875 -4.859375 4.9375 C-4.24578125 4.298125 -3.6321875 3.65875 -3 3 C-2.51015625 2.401875 -2.0203125 1.80375 -1.515625 1.1875 C-1.01546875 0.795625 -0.5153125 0.40375 0 0 Z " fill="#80266D" transform="translate(150,49)"/>
<path d="M0 0 C1 3 1 3 1 4 C1.66 4.33 2.32 4.66 3 5 C-2.75 10 -2.75 10 -5 10 C-4.38545304 6.00544473 -2.29353263 3.25533664 0 0 Z " fill="#3C2659" transform="translate(63,68)"/>
<path d="M0 0 C5.4611399 0.96891192 5.4611399 0.96891192 8 2 C9.5 4.625 9.5 4.625 10 7 C8.68 7.33 7.36 7.66 6 8 C5.938125 7.38125 5.87625 6.7625 5.8125 6.125 C5.171081 3.72238859 5.171081 3.72238859 2.4375 2.75 C1.633125 2.5025 0.82875 2.255 0 2 C0 1.34 0 0.68 0 0 Z " fill="#A72885" transform="translate(95,112)"/>
<path d="M0 0 C-1.93370231 1.00732399 -3.87210306 2.00563288 -5.8125 3 C-7.43091797 3.8353125 -7.43091797 3.8353125 -9.08203125 4.6875 C-12 6 -12 6 -15 6 C-13.73299277 5.0158875 -12.4612381 4.03788503 -11.1875 3.0625 C-10.47980469 2.51722656 -9.77210937 1.97195312 -9.04296875 1.41015625 C-5.71596733 -0.88630171 -3.76439166 -1.16825948 0 0 Z " fill="#592D68" transform="translate(87,60)"/>
<path d="M0 0 C0.99 0 1.98 0 3 0 C3 0.66 3 1.32 3 2 C4.32 2.33 5.64 2.66 7 3 C7 4.32 7 5.64 7 7 C2.25 5.125 2.25 5.125 0 4 C0 2.68 0 1.36 0 0 Z " fill="#7D2879" transform="translate(116,57)"/>
<path d="M0 0 C1.14926266 0.95421808 2.29430541 1.91352045 3.4375 2.875 C4.07558594 3.40867188 4.71367187 3.94234375 5.37109375 4.4921875 C7 6 7 6 8 8 C7.236875 7.690625 6.47375 7.38125 5.6875 7.0625 C3.81210323 6.32106407 1.91315348 5.63771783 0 5 C-1.1875 2.9375 -1.1875 2.9375 -2 1 C-1.34 0.67 -0.68 0.34 0 0 Z " fill="#AD296B" transform="translate(192,39)"/>
<path d="M0 0 C-2.85584773 1.90389849 -4.9311762 2.69462177 -8.1875 3.625 C-9.08855469 3.88539063 -9.98960937 4.14578125 -10.91796875 4.4140625 C-11.94857422 4.70410156 -11.94857422 4.70410156 -13 5 C-13 4.34 -13 3.68 -13 3 C-8.44573816 0.33409063 -5.26053037 -0.31563182 0 0 Z " fill="#B73C77" transform="translate(186,127)"/>
<path d="M0 0 C1 2 1 2 1 5 C1.99 5 2.98 5 4 5 C-0.75 9 -0.75 9 -3 9 C-2.5020163 5.26512223 -2.12508244 3.18762365 0 0 Z " fill="#45285C" transform="translate(10,108)"/>
<path d="M0 0 C0.66 0 1.32 0 2 0 C0.25 5.75 0.25 5.75 -2 8 C-2.99 7.34 -3.98 6.68 -5 6 C-3.38405168 3.95880212 -1.7143618 1.95927063 0 0 Z " fill="#9C465F" transform="translate(204,105)"/>
<path d="M0 0 C4.75 1.875 4.75 1.875 7 3 C7 3.66 7 4.32 7 5 C4.36 4.67 1.72 4.34 -1 4 C-0.67 2.68 -0.34 1.36 0 0 Z " fill="#A92884" transform="translate(107,107)"/>
<path d="M0 0 C0.66 0 1.32 0 2 0 C3.09898702 3.29696105 2.87124444 4.40494903 2.0625 7.6875 C1.86785156 8.49574219 1.67320312 9.30398437 1.47265625 10.13671875 C1.23869141 11.05904297 1.23869141 11.05904297 1 12 C0.67 12 0.34 12 0 12 C0 8.04 0 4.08 0 0 Z " fill="#F2F2F2" transform="translate(481,100)"/>
<path d="M0 0 C-1 3 -1 3 -2.7421875 4.203125 C-3.44601563 4.54859375 -4.14984375 4.8940625 -4.875 5.25 C-5.57367188 5.60578125 -6.27234375 5.9615625 -6.9921875 6.328125 C-9 7 -9 7 -12 6 C-10.37829621 4.99466333 -8.75252763 3.99588093 -7.125 3 C-5.76761719 2.1646875 -5.76761719 2.1646875 -4.3828125 1.3125 C-2 0 -2 0 0 0 Z " fill="#623471" transform="translate(87,50)"/>
<path d="M0 0 C0 3 0 3 -1.53125 4.60546875 C-2.1809375 5.12753906 -2.830625 5.64960938 -3.5 6.1875 C-4.1496875 6.71730469 -4.799375 7.24710938 -5.46875 7.79296875 C-5.9740625 8.19128906 -6.479375 8.58960938 -7 9 C-7.33 8.01 -7.66 7.02 -8 6 C-6.68 5.34 -5.36 4.68 -4 4 C-4.33 3.34 -4.66 2.68 -5 2 C-3.35 1.34 -1.7 0.68 0 0 Z " fill="#C63573" transform="translate(248,143)"/>
<path d="M0 0 C-4.18586481 3.18923033 -6.70558305 4.50423019 -12 4 C-12 3.34 -12 2.68 -12 2 C-10.37787941 1.47026689 -8.75218416 0.95146893 -7.125 0.4375 C-6.22007812 0.14746094 -5.31515625 -0.14257812 -4.3828125 -0.44140625 C-2 -1 -2 -1 0 0 Z " fill="#BA3676" transform="translate(192,118)"/>
<path d="M0 0 C0.98484375 0.02707031 1.9696875 0.05414063 2.984375 0.08203125 C3.73203125 0.11683594 4.4796875 0.15164062 5.25 0.1875 C5.25 0.5175 5.25 0.8475 5.25 1.1875 C4.29287109 1.26097656 4.29287109 1.26097656 3.31640625 1.3359375 C2.49011719 1.41070312 1.66382813 1.48546875 0.8125 1.5625 C-0.42306641 1.66691406 -0.42306641 1.66691406 -1.68359375 1.7734375 C-2.36550781 1.91007812 -3.04742187 2.04671875 -3.75 2.1875 C-4.08 2.8475 -4.41 3.5075 -4.75 4.1875 C-6.4 3.8575 -8.05 3.5275 -9.75 3.1875 C-6.47698081 0.21840402 -4.36934238 -0.15604794 0 0 Z " fill="#BC3376" transform="translate(219.75,81.8125)"/>
<path d="M0 0 C1.6266848 0.28211877 3.25132896 0.57602375 4.875 0.875 C5.77992187 1.03742187 6.68484375 1.19984375 7.6171875 1.3671875 C10 2 10 2 12 4 C8.04 3.67 4.08 3.34 0 3 C0 2.01 0 1.02 0 0 Z " fill="#7E2F79" transform="translate(112,50)"/>
<path d="M0 0 C-2.94017338 1.52453435 -5.85472185 2.95157395 -9 4 C-9.99 3.67 -10.98 3.34 -12 3 C-8.2391768 -0.7608232 -5.0273023 -0.25136512 0 0 Z " fill="#5C2E6E" transform="translate(37,102)"/>
<path d="M0 0 C1.48117801 0.28127421 2.95993249 0.57533732 4.4375 0.875 C5.67306641 1.11863281 5.67306641 1.11863281 6.93359375 1.3671875 C7.61550781 1.57601562 8.29742187 1.78484375 9 2 C9.33 2.66 9.66 3.32 10 4 C7.36 4 4.72 4 2 4 C1.34 2.68 0.68 1.36 0 0 Z " fill="#B93270" transform="translate(228,83)"/>
<path d="M0 0 C2.25 0.125 2.25 0.125 5 1 C7.3125 4.0625 7.3125 4.0625 9 7 C8.67 7.66 8.34 8.32 8 9 C6.5 7.625 6.5 7.625 5 6 C5 5.34 5 4.68 5 4 C4.360625 3.71125 3.72125 3.4225 3.0625 3.125 C1 2 1 2 0 0 Z " fill="#9A2A70" transform="translate(185,51)"/>
<path d="M0 0 C0.99 0 1.98 0 3 0 C2.60196439 2.88575819 2.20990931 3.82189513 -0.0625 5.75 C-0.701875 6.1625 -1.34125 6.575 -2 7 C-2 5.35 -2 3.7 -2 2 C-1.34 2 -0.68 2 0 2 C0 1.34 0 0.68 0 0 Z " fill="#9D2C85" transform="translate(146,48)"/>
<path d="M0 0 C1.875 0.3125 1.875 0.3125 4 1 C4.66 1.99 5.32 2.98 6 4 C6.99 4.66 7.98 5.32 9 6 C7.35 6 5.7 6 4 6 C3.67 5.01 3.34 4.02 3 3 C2.34 3 1.68 3 1 3 C0.67 2.01 0.34 1.02 0 0 Z " fill="#882F75" transform="translate(91,96)"/>
<path d="M0 0 C4.21912747 0.4794463 6.79663178 1.16625119 10 4 C7.25 4.25 7.25 4.25 4 4 C1.625 2 1.625 2 0 0 Z " fill="#AB2B86" transform="translate(106,120)"/>
<path d="M0 0 C0.99 0 1.98 0 3 0 C3.66 1.32 4.32 2.64 5 4 C2.69 3.67 0.38 3.34 -2 3 C-1.34 2.01 -0.68 1.02 0 0 Z " fill="#9B2F72" transform="translate(123,127)"/>
</svg>
